<svg width="20" height="20" viewBox="0 0 20 20" fill="none" xmlns="http://www.w3.org/2000/svg">
<path d="M14.5971 11.8344C11.1751 11.8515 10.6216 13.9515 10.4371 15.7272L10.3532 16.5125H9.66543L9.58157 15.7272C9.39709 13.9515 8.82676 11.8515 5.52218 11.8344C4.96864 10.6733 4.7338 9.73428 4.7338 8.67572C4.7338 6.02935 6.86416 3.5536 10.0177 3.5536C13.1713 3.5536 15.2681 6.01219 15.2681 8.69287C15.2681 9.73428 15.1674 10.6733 14.5971 11.8344ZM9.98419 0.34375C4.78417 0.34375 0.523438 4.6805 0.523438 9.99033C0.523438 15.3174 4.78417 19.6541 9.98419 19.6541C15.2345 19.6541 19.4784 15.3174 19.4784 9.99033C19.4784 4.68051 15.2345 0.34375 9.98419 0.34375Z" fill="#C99C2A"/>
</svg>
