<svg width="18" height="18" viewBox="0 0 18 18" fill="none" xmlns="http://www.w3.org/2000/svg">
<g clip-path="url(#clip0_73_1249)">
<path d="M8.99965 18.0002C8.91589 18.0006 8.8329 17.9843 8.75554 17.9522C8.67817 17.92 8.60801 17.8728 8.54915 17.8132L3.6531 12.9172C2.59432 11.8595 1.87304 10.5115 1.58051 9.04383C1.28797 7.57613 1.43733 6.05465 2.00968 4.67185C2.58204 3.28906 3.55167 2.1071 4.79591 1.27549C6.04015 0.443881 7.50309 0 8.99965 0C10.4962 0 11.9592 0.443881 13.2034 1.27549C14.4476 2.1071 15.4173 3.28906 15.9896 4.67185C16.562 6.05465 16.7113 7.57613 16.4188 9.04383C16.1263 10.5115 15.405 11.8595 14.3462 12.9172L9.45016 17.8132C9.3913 17.8728 9.32113 17.92 9.24377 17.9522C9.16641 17.9843 9.08341 18.0006 8.99965 18.0002ZM8.99965 1.28054C7.75623 1.28141 6.54097 1.65078 5.50738 2.342C4.4738 3.03323 3.66826 4.01528 3.19254 5.16409C2.71683 6.31291 2.59227 7.57695 2.83461 8.79652C3.07695 10.0161 3.67531 11.1365 4.55411 12.0161L8.99965 16.4617L13.4452 12.0161C14.324 11.1365 14.9224 10.0161 15.1647 8.79652C15.407 7.57695 15.2825 6.31291 14.8068 5.16409C14.331 4.01528 13.5255 3.03323 12.4919 2.342C11.4583 1.65078 10.2431 1.28141 8.99965 1.28054Z" fill="#C99C2A"/>
<path d="M8.99906 10.3751C8.36862 10.3751 7.75235 10.1881 7.22816 9.83788C6.70397 9.48763 6.29542 8.98981 6.05416 8.40736C5.8129 7.82491 5.74978 7.18401 5.87277 6.56568C5.99576 5.94736 6.29935 5.3794 6.74513 4.93361C7.19092 4.48782 7.75888 4.18424 8.3772 4.06125C8.99552 3.93826 9.63643 4.00138 10.2189 4.24264C10.8013 4.4839 11.2991 4.89245 11.6494 5.41664C11.9996 5.94083 12.1866 6.5571 12.1866 7.18754C12.1866 8.03293 11.8508 8.84369 11.253 9.44147C10.6552 10.0393 9.84444 10.3751 8.99906 10.3751ZM8.99906 5.27502C8.6208 5.27502 8.25103 5.38718 7.93652 5.59734C7.62201 5.80749 7.37687 6.10618 7.23212 6.45565C7.08737 6.80512 7.04949 7.18966 7.12329 7.56066C7.19708 7.93165 7.37923 8.27243 7.6467 8.5399C7.91417 8.80737 8.25495 8.98952 8.62594 9.06332C8.99693 9.13711 9.38148 9.09924 9.73094 8.95448C10.0804 8.80973 10.3791 8.5646 10.5893 8.25008C10.7994 7.93557 10.9116 7.5658 10.9116 7.18754C10.9116 6.68031 10.7101 6.19385 10.3514 5.83518C9.99274 5.47651 9.50629 5.27502 8.99906 5.27502Z" fill="#C99C2A"/>
</g>
<defs>
<clipPath id="clip0_73_1249">
<rect width="18" height="18" fill="white"/>
</clipPath>
</defs>
</svg>
