<svg width="375" height="83" viewBox="0 0 375 83" fill="none" xmlns="http://www.w3.org/2000/svg">
<path fill-rule="evenodd" clip-rule="evenodd" d="M21.277 41.5C14.7439 38.7455 9.61166 35.1027 8.7069 28.0893C8.36584 25.4447 8.5048 22.9047 8.7069 20.2177C9.19901 13.6785 17.3925 8.93885 8.92743 0.546458C14.3763 -0.861022 17.9046 0.450393 19.5128 4.48071C32.5044 1.82363 41.8176 4.24768 45.7556 14.0978C53.7121 14.1527 58.282 17.7317 60.7516 23.4963C57.3058 23.7202 55 24.5893 53.4741 25.9005C57.473 25.8425 61.2661 28.3335 65.1621 27.8677C68.3157 31.4597 71.658 34.4902 75.0859 37.2661C77.9409 31.8205 83.4575 27.1511 84.9024 22.2528C87.403 20.0252 87.5716 16.9814 87.8765 14.7535C86.9207 16.355 86.038 18.2466 84.7891 18.6877C80.1878 17.3137 76.6154 17.129 75.3064 19.562C81.106 21.4276 81.4344 24.0403 79.2759 26.9934C74.8803 32.7751 65.8554 29.1764 68.2495 19.562C59.2827 13.1217 59.7478 7.42902 64.5005 2.07645C68.1914 10.322 76.2029 6.84199 80.8196 12.1306C86.0668 0.795659 93.8884 0.732121 102.431 3.82501C93.4736 8.52796 96.5059 17.5224 89.3907 27.9924C87.6637 30.5337 85.4415 30.3069 82.0996 35.8366C84.1366 34.0774 86.5505 32.9465 89.1358 32.5465C88.5627 34.3667 88.5036 36.1864 89.5765 38.0059C96.3213 36.4265 101.274 37.9139 105 41.5C101.274 45.0861 96.3213 46.5735 89.5765 44.9941C88.5036 46.8136 88.5627 48.6333 89.1358 50.4536C86.5505 50.0535 84.1366 48.9226 82.0996 47.1634C85.4415 52.6931 87.6637 52.4663 89.3907 55.0076C96.5059 65.4776 93.4736 74.472 102.431 79.175C93.8884 82.2679 86.0668 82.2043 80.8196 70.8694C76.2029 76.158 68.1914 72.678 64.5005 80.9236C59.7478 75.571 59.2827 69.8783 68.2495 63.438C65.8554 53.8236 74.8803 50.2249 79.2759 56.0066C81.4344 58.9597 81.106 61.5724 75.3064 63.438C76.6154 65.871 80.1878 65.6863 84.7891 64.3123C86.038 64.7534 86.9207 66.645 87.8765 68.2465C87.5716 66.0186 87.403 62.9748 84.9024 60.7472C83.4575 55.8489 77.9409 51.1795 75.0859 45.7339C71.658 48.5098 68.3157 51.5403 65.1621 55.1323C61.2661 54.6665 57.473 57.1575 53.4741 57.0995C55 58.4107 57.3058 59.2798 60.7516 59.5037C58.282 65.2683 53.7121 68.8473 45.7556 68.9022C41.8176 78.7523 32.5044 81.1764 19.5128 78.5193C17.9046 82.5496 14.3763 83.861 8.92743 82.4535C17.3925 74.0612 9.19901 69.3215 8.7069 62.7823C8.5048 60.0953 8.36584 57.5553 8.7069 54.9107C9.61166 47.8973 14.7439 44.2545 21.277 41.5ZM64.9416 41.5C58.0682 36.9393 49.634 34.4476 38.9193 34.8619C40.8439 25.8248 40.6923 16.3152 29.216 14.5349C18.8276 12.9233 12.2409 25.0691 21.9386 31.1023C21.3666 15.5463 39.6208 24.3591 31.6418 33.9876C23.6594 40.22 8.82072 32.3499 13.7643 19.3434C18.6201 6.56749 34.7661 6.61942 41.698 18.8917C45.0898 18.6204 48.8951 19.6554 50.6073 21.937C47.0203 23.9262 44.9422 26.8163 43.5504 30.7091C63.4238 26.7339 64.9855 37.849 75.4974 41.5C64.9855 45.151 63.4238 56.2661 43.5504 52.2909C44.9422 56.1837 47.0203 59.0738 50.6073 61.063C48.8951 63.3446 45.0898 64.3796 41.698 64.1084C34.7661 76.3806 18.6201 76.4325 13.7643 63.6566C8.82071 50.6501 23.6594 42.78 31.6418 49.0124C39.6208 58.6409 21.3666 67.4537 21.9386 51.8978C12.2409 57.931 18.8276 70.0767 29.216 68.4651C40.6923 66.6848 40.8439 57.1752 38.9193 48.1381C49.634 48.5524 58.0682 46.0607 64.9416 41.5ZM-4.27701 41.5C2.25612 38.7455 7.38834 35.1027 8.2931 28.0893C8.63416 25.4447 8.4952 22.9047 8.2931 20.2177C7.80099 13.6785 -0.392525 8.93884 8.07257 0.546458C2.62366 -0.861023 -0.904594 0.450392 -2.51278 4.48071C-15.5044 1.82363 -24.8176 4.24768 -28.7556 14.0978C-36.7121 14.1527 -41.282 17.7317 -43.7516 23.4963C-40.3058 23.7202 -38 24.5893 -36.4741 25.9005C-40.473 25.8425 -44.2661 28.3335 -48.1621 27.8676C-51.3157 31.4597 -54.658 34.4902 -58.0859 37.2661C-60.9409 31.8205 -66.4575 27.1511 -67.9024 22.2528C-70.403 20.0252 -70.5715 16.9814 -70.8765 14.7535C-69.9207 16.355 -69.038 18.2466 -67.7891 18.6877C-63.1878 17.3137 -59.6154 17.129 -58.3064 19.562C-64.106 21.4276 -64.4344 24.0403 -62.2759 26.9934C-57.8803 32.7751 -48.8554 29.1764 -51.2495 19.562C-42.2827 13.1217 -42.7478 7.42902 -47.5005 2.07644C-51.1914 10.322 -59.2029 6.84198 -63.8196 12.1306C-69.0668 0.795652 -76.8884 0.732113 -85.4314 3.825C-76.4736 8.52795 -79.5059 17.5224 -72.3907 27.9924C-70.6637 30.5337 -68.4415 30.3069 -65.0996 35.8366C-67.1366 34.0774 -69.5505 32.9465 -72.1358 32.5464C-71.5627 34.3667 -71.5036 36.1864 -72.5765 38.0059C-79.3213 36.4265 -84.2737 37.9139 -88 41.5C-84.2737 45.0861 -79.3213 46.5735 -72.5765 44.9941C-71.5036 46.8136 -71.5627 48.6333 -72.1358 50.4535C-69.5505 50.0535 -67.1366 48.9226 -65.0996 47.1634C-68.4415 52.6931 -70.6637 52.4663 -72.3907 55.0076C-79.5059 65.4776 -76.4736 74.472 -85.4314 79.175C-76.8884 82.2679 -69.0668 82.2043 -63.8196 70.8693C-59.2029 76.158 -51.1914 72.678 -47.5005 80.9235C-42.7478 75.571 -42.2827 69.8783 -51.2495 63.438C-48.8554 53.8236 -57.8803 50.2249 -62.2759 56.0066C-64.4344 58.9597 -64.106 61.5724 -58.3064 63.438C-59.6154 65.871 -63.1878 65.6863 -67.7891 64.3123C-69.038 64.7534 -69.9207 66.645 -70.8765 68.2465C-70.5716 66.0186 -70.403 62.9748 -67.9024 60.7472C-66.4575 55.8489 -60.9409 51.1795 -58.0859 45.7339C-54.658 48.5098 -51.3157 51.5403 -48.1621 55.1323C-44.2661 54.6665 -40.473 57.1575 -36.4741 57.0995C-38 58.4107 -40.3058 59.2798 -43.7516 59.5037C-41.282 65.2683 -36.7121 68.8472 -28.7556 68.9022C-24.8176 78.7523 -15.5044 81.1764 -2.51278 78.5193C-0.904598 82.5496 2.62366 83.861 8.07257 82.4535C-0.392528 74.0612 7.80099 69.3215 8.2931 62.7823C8.4952 60.0953 8.63416 57.5553 8.2931 54.9107C7.38834 47.8973 2.25612 44.2545 -4.27701 41.5ZM-47.9416 41.5C-41.0682 36.9393 -32.634 34.4476 -21.9193 34.8619C-23.8439 25.8248 -23.6923 16.3152 -12.216 14.5349C-1.82759 12.9233 4.75909 25.0691 -4.93859 31.1023C-4.36664 15.5463 -22.6208 24.3591 -14.6418 33.9876C-6.65944 40.22 8.17928 32.3499 3.23572 19.3434C-1.62012 6.56749 -17.7661 6.61942 -24.698 18.8917C-28.0898 18.6204 -31.895 19.6554 -33.6073 21.937C-30.0203 23.9262 -27.9422 26.8163 -26.5504 30.7091C-46.4238 26.7339 -47.9855 37.849 -58.4974 41.5C-47.9855 45.151 -46.4238 56.2661 -26.5504 52.2909C-27.9422 56.1837 -30.0203 59.0738 -33.6073 61.063C-31.895 63.3446 -28.0898 64.3796 -24.698 64.1083C-17.7661 76.3806 -1.62012 76.4325 3.23572 63.6566C8.17928 50.6501 -6.65944 42.78 -14.6418 49.0124C-22.6208 58.6409 -4.36664 67.4537 -4.93859 51.8978C4.75908 57.931 -1.82759 70.0767 -12.216 68.4651C-23.6923 66.6848 -23.844 57.1752 -21.9193 48.1381C-32.634 48.5524 -41.0682 46.0607 -47.9416 41.5Z" fill="#F4ECD9"/>
<path fill-rule="evenodd" clip-rule="evenodd" d="M214.843 41.5C208.276 38.7455 203.117 35.1027 202.208 28.0893C201.865 25.4447 202.005 22.9047 202.208 20.2177C202.703 13.6785 210.939 8.93885 202.43 0.546458C207.907 -0.861022 211.453 0.450393 213.07 4.48071C226.129 1.82363 235.49 4.24768 239.449 14.0978C247.446 14.1527 252.04 17.7317 254.522 23.4963C251.059 23.7202 248.741 24.5893 247.207 25.9005C251.227 25.8425 255.04 28.3335 258.956 27.8677C262.126 31.4597 265.485 34.4902 268.931 37.2661C271.801 31.8205 277.346 27.1511 278.798 22.2528C281.312 20.0252 281.481 16.9814 281.788 14.7535C280.827 16.355 279.94 18.2466 278.684 18.6877C274.059 17.3137 270.468 17.129 269.153 19.562C274.982 21.4276 275.312 24.0403 273.143 26.9934C268.724 32.7751 259.653 29.1764 262.059 19.562C253.046 13.1217 253.513 7.42902 258.291 2.07645C262.001 10.322 270.054 6.84199 274.694 12.1306C279.969 0.795659 287.831 0.732121 296.418 3.82501C287.414 8.52796 290.462 17.5224 283.31 27.9924C281.574 30.5337 279.34 30.3069 275.981 35.8366C278.028 34.0774 280.455 32.9465 283.054 32.5465C282.478 34.3667 282.418 36.1864 283.497 38.0059C290.276 36.4265 295.254 37.9139 299 41.5C295.254 45.0861 290.276 46.5735 283.497 44.9941C282.418 46.8136 282.478 48.6333 283.054 50.4536C280.455 50.0535 278.028 48.9226 275.981 47.1634C279.34 52.6931 281.574 52.4663 283.31 55.0076C290.462 65.4776 287.414 74.472 296.418 79.175C287.831 82.2679 279.969 82.2043 274.694 70.8694C270.054 76.158 262.001 72.678 258.291 80.9236C253.513 75.571 253.046 69.8783 262.059 63.438C259.653 53.8236 268.724 50.2249 273.143 56.0066C275.312 58.9597 274.982 61.5724 269.153 63.438C270.468 65.871 274.059 65.6863 278.684 64.3123C279.94 64.7534 280.827 66.645 281.788 68.2465C281.481 66.0186 281.312 62.9748 278.798 60.7472C277.346 55.8489 271.801 51.1795 268.931 45.7339C265.485 48.5098 262.126 51.5403 258.956 55.1324C255.04 54.6665 251.227 57.1575 247.207 57.0995C248.741 58.4107 251.059 59.2798 254.522 59.5037C252.04 65.2683 247.446 68.8473 239.449 68.9022C235.49 78.7523 226.129 81.1764 213.07 78.5193C211.453 82.5496 207.907 83.861 202.43 82.4535C210.939 74.0612 202.703 69.3215 202.208 62.7823C202.005 60.0953 201.865 57.5553 202.208 54.9107C203.117 47.8973 208.276 44.2545 214.843 41.5ZM258.734 41.5C251.825 36.9393 243.347 34.4476 232.577 34.8619C234.512 25.8248 234.359 16.3152 222.823 14.5349C212.381 12.9233 205.76 25.0691 215.508 31.1023C214.933 15.5463 233.282 24.3591 225.262 33.9876C217.238 40.22 202.322 32.3499 207.292 19.3434C212.173 6.56749 228.402 6.61942 235.37 18.8917C238.779 18.6204 242.604 19.6554 244.325 21.937C240.72 23.9262 238.631 26.8163 237.232 30.7091C257.208 26.7339 258.778 37.849 269.345 41.5C258.778 45.151 257.208 56.2661 237.232 52.2909C238.631 56.1837 240.72 59.0738 244.325 61.063C242.604 63.3446 238.779 64.3796 235.37 64.1084C228.402 76.3806 212.173 76.4325 207.292 63.6566C202.322 50.6501 217.238 42.78 225.262 49.0124C233.282 58.6409 214.933 67.4537 215.508 51.8978C205.76 57.931 212.381 70.0767 222.823 68.4651C234.359 66.6848 234.512 57.1752 232.577 48.1381C243.347 48.5524 251.825 46.0607 258.734 41.5ZM189.157 41.5C195.724 38.7455 200.883 35.1027 201.792 28.0893C202.135 25.4447 201.995 22.9047 201.792 20.2177C201.297 13.6785 193.061 8.93884 201.57 0.546458C196.093 -0.861023 192.547 0.450392 190.93 4.48071C177.871 1.82363 168.51 4.24768 164.551 14.0978C156.554 14.1527 151.96 17.7317 149.478 23.4963C152.941 23.7202 155.259 24.5893 156.793 25.9005C152.773 25.8425 148.96 28.3335 145.044 27.8676C141.874 31.4597 138.515 34.4902 135.069 37.2661C132.199 31.8205 126.654 27.1511 125.202 22.2528C122.688 20.0252 122.519 16.9814 122.212 14.7535C123.173 16.355 124.06 18.2466 125.316 18.6877C129.941 17.3137 133.532 17.129 134.847 19.562C129.018 21.4276 128.688 24.0403 130.857 26.9934C135.276 32.7751 144.347 29.1764 141.941 19.562C150.954 13.1217 150.487 7.42902 145.709 2.07644C141.999 10.322 133.946 6.84198 129.306 12.1306C124.031 0.795652 116.169 0.732113 107.582 3.825C116.586 8.52795 113.538 17.5224 120.69 27.9924C122.426 30.5337 124.66 30.3069 128.019 35.8366C125.972 34.0774 123.545 32.9465 120.946 32.5464C121.522 34.3667 121.582 36.1864 120.503 38.0059C113.724 36.4265 108.746 37.9139 105 41.5C108.746 45.0861 113.724 46.5735 120.503 44.9941C121.582 46.8136 121.522 48.6333 120.946 50.4535C123.545 50.0535 125.972 48.9226 128.019 47.1634C124.66 52.6931 122.426 52.4663 120.69 55.0076C113.538 65.4776 116.586 74.472 107.582 79.175C116.169 82.2679 124.031 82.2043 129.306 70.8693C133.946 76.158 141.999 72.678 145.709 80.9235C150.487 75.571 150.954 69.8783 141.941 63.438C144.347 53.8236 135.276 50.2249 130.857 56.0066C128.688 58.9597 129.018 61.5724 134.847 63.438C133.532 65.871 129.941 65.6863 125.316 64.3123C124.06 64.7534 123.173 66.645 122.212 68.2465C122.519 66.0186 122.688 62.9748 125.202 60.7472C126.654 55.8489 132.199 51.1795 135.069 45.7339C138.515 48.5098 141.874 51.5403 145.044 55.1323C148.96 54.6665 152.773 57.1575 156.793 57.0995C155.259 58.4107 152.941 59.2798 149.478 59.5037C151.96 65.2683 156.554 68.8472 164.551 68.9022C168.51 78.7523 177.871 81.1764 190.93 78.5193C192.547 82.5496 196.093 83.861 201.57 82.4535C193.061 74.0612 201.297 69.3215 201.792 62.7823C201.995 60.0953 202.135 57.5553 201.792 54.9107C200.883 47.8973 195.724 44.2545 189.157 41.5ZM145.266 41.5C152.175 36.9393 160.653 34.4476 171.423 34.8619C169.488 25.8248 169.641 16.3152 181.177 14.5349C191.619 12.9233 198.24 25.0691 188.492 31.1023C189.067 15.5463 170.718 24.3591 178.738 33.9876C186.762 40.22 201.678 32.3499 196.708 19.3434C191.827 6.56749 175.598 6.61942 168.63 18.8917C165.221 18.6204 161.396 19.6554 159.675 21.937C163.28 23.9262 165.369 26.8163 166.768 30.7091C146.792 26.7339 145.222 37.849 134.655 41.5C145.222 45.151 146.792 56.2661 166.768 52.2909C165.369 56.1837 163.28 59.0738 159.675 61.063C161.396 63.3446 165.221 64.3796 168.63 64.1083C175.598 76.3806 191.827 76.4325 196.708 63.6566C201.678 50.6501 186.762 42.78 178.738 49.0124C170.718 58.6409 189.067 67.4537 188.492 51.8978C198.24 57.931 191.619 70.0767 181.177 68.4651C169.641 66.6848 169.488 57.1752 171.423 48.1381C160.653 48.5524 152.175 46.0607 145.266 41.5Z" fill="#F4ECD9"/>
<path fill-rule="evenodd" clip-rule="evenodd" d="M408.843 41.5C402.276 38.7455 397.117 35.1027 396.208 28.0893C395.865 25.4447 396.005 22.9047 396.208 20.2177C396.703 13.6785 404.939 8.93885 396.43 0.546458C401.907 -0.861022 405.453 0.450393 407.07 4.48071C420.129 1.82363 429.49 4.24768 433.449 14.0978C441.446 14.1527 446.04 17.7317 448.522 23.4963C445.059 23.7202 442.741 24.5893 441.207 25.9005C445.227 25.8425 449.04 28.3335 452.956 27.8677C456.126 31.4597 459.485 34.4902 462.931 37.2661C465.801 31.8205 471.346 27.1511 472.798 22.2528C475.312 20.0252 475.481 16.9814 475.788 14.7535C474.827 16.355 473.94 18.2466 472.684 18.6877C468.059 17.3137 464.468 17.129 463.153 19.562C468.982 21.4276 469.312 24.0403 467.143 26.9934C462.724 32.7751 453.653 29.1764 456.059 19.562C447.046 13.1217 447.513 7.42902 452.291 2.07645C456.001 10.322 464.054 6.84199 468.694 12.1306C473.969 0.795659 481.831 0.732121 490.418 3.82501C481.414 8.52796 484.462 17.5224 477.31 27.9924C475.574 30.5337 473.34 30.3069 469.981 35.8366C472.028 34.0774 474.455 32.9465 477.054 32.5465C476.478 34.3667 476.418 36.1864 477.497 38.0059C484.276 36.4265 489.254 37.9139 493 41.5C489.254 45.0861 484.276 46.5735 477.497 44.9941C476.418 46.8136 476.478 48.6333 477.054 50.4536C474.455 50.0535 472.028 48.9226 469.981 47.1634C473.34 52.6931 475.574 52.4663 477.31 55.0076C484.462 65.4776 481.414 74.472 490.418 79.175C481.831 82.2679 473.969 82.2043 468.694 70.8694C464.054 76.158 456.001 72.678 452.291 80.9236C447.513 75.571 447.046 69.8783 456.059 63.438C453.653 53.8236 462.724 50.2249 467.143 56.0066C469.312 58.9597 468.982 61.5724 463.153 63.438C464.468 65.871 468.059 65.6863 472.684 64.3123C473.94 64.7534 474.827 66.645 475.788 68.2465C475.481 66.0186 475.312 62.9748 472.798 60.7472C471.346 55.8489 465.801 51.1795 462.931 45.7339C459.485 48.5098 456.126 51.5403 452.956 55.1324C449.04 54.6665 445.227 57.1575 441.207 57.0995C442.741 58.4107 445.059 59.2798 448.522 59.5037C446.04 65.2683 441.446 68.8473 433.449 68.9022C429.49 78.7523 420.129 81.1764 407.07 78.5193C405.453 82.5496 401.907 83.861 396.43 82.4535C404.939 74.0612 396.703 69.3215 396.208 62.7823C396.005 60.0953 395.865 57.5553 396.208 54.9107C397.117 47.8973 402.276 44.2545 408.843 41.5ZM452.734 41.5C445.825 36.9393 437.347 34.4476 426.577 34.8619C428.512 25.8248 428.359 16.3152 416.823 14.5349C406.381 12.9233 399.76 25.0691 409.508 31.1023C408.933 15.5463 427.282 24.3591 419.262 33.9876C411.238 40.22 396.322 32.3499 401.292 19.3434C406.173 6.56749 422.402 6.61942 429.37 18.8917C432.779 18.6204 436.604 19.6554 438.325 21.937C434.72 23.9262 432.631 26.8163 431.232 30.7091C451.208 26.7339 452.778 37.849 463.345 41.5C452.778 45.151 451.208 56.2661 431.232 52.2909C432.631 56.1837 434.72 59.0738 438.325 61.063C436.604 63.3446 432.779 64.3796 429.37 64.1084C422.402 76.3806 406.173 76.4325 401.292 63.6566C396.322 50.6501 411.238 42.78 419.262 49.0124C427.282 58.6409 408.933 67.4537 409.508 51.8978C399.76 57.931 406.381 70.0767 416.823 68.4651C428.359 66.6848 428.512 57.1752 426.577 48.1381C437.347 48.5524 445.825 46.0607 452.734 41.5ZM383.157 41.5C389.724 38.7455 394.883 35.1027 395.792 28.0893C396.135 25.4447 395.995 22.9047 395.792 20.2177C395.297 13.6785 387.061 8.93884 395.57 0.546458C390.093 -0.861023 386.547 0.450392 384.93 4.48071C371.871 1.82363 362.51 4.24768 358.551 14.0978C350.554 14.1527 345.96 17.7317 343.478 23.4963C346.941 23.7202 349.259 24.5893 350.793 25.9005C346.773 25.8425 342.96 28.3335 339.044 27.8676C335.874 31.4597 332.515 34.4902 329.069 37.2661C326.199 31.8205 320.654 27.1511 319.202 22.2528C316.688 20.0252 316.519 16.9814 316.212 14.7535C317.173 16.355 318.06 18.2466 319.316 18.6877C323.941 17.3137 327.532 17.129 328.847 19.562C323.018 21.4276 322.688 24.0403 324.857 26.9934C329.276 32.7751 338.347 29.1764 335.941 19.562C344.954 13.1217 344.487 7.42902 339.709 2.07644C335.999 10.322 327.946 6.84198 323.306 12.1306C318.031 0.795652 310.169 0.732113 301.582 3.825C310.586 8.52795 307.538 17.5224 314.69 27.9924C316.426 30.5337 318.66 30.3069 322.019 35.8366C319.972 34.0774 317.545 32.9465 314.946 32.5464C315.522 34.3667 315.582 36.1864 314.503 38.0059C307.724 36.4265 302.746 37.9139 299 41.5C302.746 45.0861 307.724 46.5735 314.503 44.9941C315.582 46.8136 315.522 48.6333 314.946 50.4535C317.545 50.0535 319.972 48.9226 322.019 47.1634C318.66 52.6931 316.426 52.4663 314.69 55.0076C307.538 65.4776 310.586 74.472 301.582 79.175C310.169 82.2679 318.031 82.2043 323.306 70.8693C327.946 76.158 335.999 72.678 339.709 80.9235C344.487 75.571 344.954 69.8783 335.941 63.438C338.347 53.8236 329.276 50.2249 324.857 56.0066C322.688 58.9597 323.018 61.5724 328.847 63.438C327.532 65.871 323.941 65.6863 319.316 64.3123C318.06 64.7534 317.173 66.645 316.212 68.2465C316.519 66.0186 316.688 62.9748 319.202 60.7472C320.654 55.8489 326.199 51.1795 329.069 45.7339C332.515 48.5098 335.874 51.5403 339.044 55.1323C342.96 54.6665 346.773 57.1575 350.793 57.0995C349.259 58.4107 346.941 59.2798 343.478 59.5037C345.96 65.2683 350.554 68.8472 358.551 68.9022C362.51 78.7523 371.871 81.1764 384.93 78.5193C386.547 82.5496 390.093 83.861 395.57 82.4535C387.061 74.0612 395.297 69.3215 395.792 62.7823C395.995 60.0953 396.135 57.5553 395.792 54.9107C394.883 47.8973 389.724 44.2545 383.157 41.5ZM339.266 41.5C346.175 36.9393 354.653 34.4476 365.423 34.8619C363.488 25.8248 363.641 16.3152 375.177 14.5349C385.619 12.9233 392.24 25.0691 382.492 31.1023C383.067 15.5463 364.718 24.3591 372.738 33.9876C380.762 40.22 395.678 32.3499 390.708 19.3434C385.827 6.56749 369.598 6.61942 362.63 18.8917C359.221 18.6204 355.396 19.6554 353.675 21.937C357.28 23.9262 359.369 26.8163 360.768 30.7091C340.792 26.7339 339.222 37.849 328.655 41.5C339.222 45.151 340.792 56.2661 360.768 52.2909C359.369 56.1837 357.28 59.0738 353.675 61.063C355.396 63.3446 359.221 64.3796 362.63 64.1083C369.598 76.3806 385.827 76.4325 390.708 63.6566C395.678 50.6501 380.762 42.78 372.738 49.0124C364.718 58.6409 383.067 67.4537 382.492 51.8978C392.24 57.931 385.619 70.0767 375.177 68.4651C363.641 66.6848 363.488 57.1752 365.423 48.1381C354.653 48.5524 346.175 46.0607 339.266 41.5Z" fill="#F4ECD9"/>
</svg>
