<svg width="208" height="292" viewBox="0 0 208 292" fill="none" xmlns="http://www.w3.org/2000/svg">
<path d="M207.858 0C208.528 0 209.197 0 209.867 0C209.983 0.906553 210.768 1.22968 211.358 1.7054C218.722 7.60248 221.463 15.3575 220.472 24.6116C220.383 25.4732 219.927 26.3439 220.552 27.5646C224.337 25.5091 228.176 23.5434 232.407 22.5651C244.752 19.7287 255.402 25.6079 258.732 37.1507C262.079 48.7564 253.304 60.3261 241.28 60.1646C239.37 60.1377 237.513 59.7696 235.835 58.7913C232.835 57.041 232.809 56.0088 235.683 54.2585C239.37 52.0236 240.985 48.0652 239.923 43.8556C238.932 39.9152 235.638 37.4918 231.211 37.429C222.98 37.3213 217.071 46.2252 219.57 55.0304C220.793 59.3478 223.4 62.8304 226.435 66.0168C231.166 70.9714 236.772 74.8579 242.182 78.9778C244.092 80.4319 244.86 80.028 245.708 77.9097C249.725 67.9017 257.384 62.0944 267.507 59.276C269.435 58.7374 271.39 58.2617 273.363 57.9027C285.86 55.6049 298.634 55.4523 311.096 52.9391C313.193 52.5172 313.774 53.8815 314.318 55.4792C316.327 61.4212 318.898 67.1388 321.442 72.8653C324.397 79.5074 327.485 86.0866 329.61 93.0787C333.029 104.343 332.448 114.989 324.861 124.539C323.665 126.047 323.995 126.783 325.628 127.492C331.859 130.194 338.01 133.12 344.624 134.825C348.32 135.785 352.06 136.288 355.872 135.803C361.969 135.023 366.147 131.63 368.271 125.921C369.914 121.523 368.78 117.484 365.522 114.19C362.897 111.542 359.621 111.066 356.256 112.502C352.069 114.288 350.213 117.654 350.668 122.187C350.891 124.44 349.775 124.314 348.275 123.848C345.535 123.004 343.759 121.056 342.455 118.624C336.305 107.198 343.071 93.7519 355.872 91.9388C364.933 90.6553 372.726 94.5238 377.18 102.557C379.724 107.153 380.813 112.143 381.001 117.367C381.045 118.489 380.554 119.782 381.643 120.832C383.393 119.656 385.009 118.453 386.723 117.439C393.757 113.274 401.041 113.104 408.54 116.12C410.405 116.873 411.03 117.888 410.727 119.934C409.397 128.946 404.755 135.435 396.551 139.358C395.4 139.914 393.953 140.013 393.043 141.44C394.203 142.185 395.31 142.894 396.408 143.603C400.773 146.449 404.469 149.949 407.031 154.554C411.825 163.197 410.298 173.295 403.175 180.099C394.48 188.401 380.153 185.807 374.85 174.965C374.1 173.439 373.618 171.841 373.672 170.118C373.779 166.779 374.6 166.312 377.439 167.91C381.358 170.118 385.777 169.471 388.74 166.258C391.597 163.171 391.927 158.862 389.508 155.101C387.374 151.789 384.357 149.922 380.358 149.788C372.815 149.536 368.021 153.477 364.942 159.993C361.094 168.161 360.594 177.056 359.505 185.825C359.184 188.383 359.987 188.796 362.406 188.464C371.271 187.226 379.144 189.721 386.035 195.429C389.579 198.365 392.739 201.686 395.498 205.348C401.336 213.121 406.977 221.046 412.905 228.747C418.377 235.856 418.377 233.451 412.833 240.649C406.701 248.62 400.97 256.896 394.784 264.821C386.392 275.583 376.207 282.916 361.612 280.789C359.657 280.502 359.318 281.498 359.505 283.123C359.8 285.681 359.996 288.248 360.335 290.806C361.335 298.256 362.415 305.706 366.575 312.222C370.262 317.994 376.386 320.686 382.661 319.187C387.071 318.137 389.829 315.175 390.874 310.795C391.74 307.169 390.454 304.09 387.473 301.954C383.911 299.405 380.135 299.441 376.6 302.008C374.832 303.291 374.332 302.51 373.913 300.913C373.279 298.48 373.797 296.2 374.975 294.118C378.367 288.149 383.5 284.658 390.356 284.307C403.443 283.634 413.298 298.337 408.575 311.334C406.254 317.715 401.711 322.212 396.194 325.874C395.132 326.583 393.695 326.871 393.079 328.396C394.23 328.926 395.337 329.42 396.444 329.94C404.389 333.692 409.048 339.885 410.611 348.619C411.119 351.482 410.182 352.622 407.683 353.556C399.256 356.688 391.516 355.485 384.25 350.324C383.331 349.669 382.652 348.394 380.938 348.762C380.938 350.217 381.028 351.662 380.92 353.107C380.421 360.225 378.483 366.831 373.243 371.938C367.325 377.7 360.157 378.903 352.48 376.569C345.687 374.505 341.572 369.658 340.536 362.612C339.634 356.446 340.875 350.764 346.017 346.59C347.151 345.675 348.624 344.84 350.025 345.361C351.569 345.935 350.48 347.524 350.543 348.628C350.784 352.766 353.382 356.159 357.327 357.227C361.183 358.277 364.915 356.805 367.102 353.223C369.369 349.507 369.628 345.657 367.575 341.725C364.165 335.227 357.809 332.346 349.391 333.567C341.232 334.742 333.886 338.297 326.396 341.474C324.066 342.462 323.557 343.251 325.298 345.459C330.208 351.707 332.172 358.914 331.475 366.858C331.02 372.037 329.556 376.964 327.708 381.784C323.468 392.86 317.8 403.335 314.024 414.609C313.515 416.117 312.551 416.745 310.953 416.413C299.58 414.061 287.958 413.72 276.514 411.997C262.588 409.905 250.689 404.861 245.226 390.392C244.583 388.687 243.708 389.243 242.708 389.988C236.888 394.306 230.925 398.461 225.944 403.82C223.186 406.791 220.838 410.049 219.642 413.998C217.178 422.139 221.971 430.792 229.541 431.887C234.165 432.551 238.352 430.182 239.727 426.125C241.182 421.825 239.575 417.454 235.665 415.084C232.764 413.325 232.764 412.266 235.835 410.579C236.977 409.95 238.307 409.493 239.602 409.322C249.617 407.985 259.258 416.386 259.437 426.547C259.669 439.525 248.261 449.165 235.031 447.289C229.854 446.553 225.31 444.211 220.686 442.03C220.525 441.994 220.365 441.949 220.204 441.913C220.222 442.093 220.24 442.281 220.258 442.461C220.383 444.579 220.606 446.697 220.606 448.824C220.588 456.912 217.08 463.204 210.786 468.113C209.313 469.262 208.189 469.316 206.68 468.149C199.476 462.584 196.227 455.287 196.825 446.203C196.905 444.911 197.512 443.609 196.825 442.155C196.396 442.263 195.941 442.29 195.584 442.487C191.478 444.812 187.175 446.562 182.471 447.272C170.813 449.022 160.609 442.012 158.324 430.666C155.985 419.07 165.662 408.209 177.383 409.259C179.311 409.43 181.087 410.04 182.614 411.252C184.363 412.643 184.917 413.612 182.257 414.905C177.802 417.077 176.115 421.825 177.749 426.232C179.346 430.55 183.783 432.794 188.648 431.743C195.218 430.325 199.699 422.696 198.173 415.542C197.227 411.126 194.825 407.527 191.862 404.26C186.8 398.668 180.632 394.422 174.651 389.943C173.214 388.866 172.598 389.306 172.018 390.805C167.153 403.299 157.181 408.945 144.755 411.315C132.053 413.747 119.047 413.783 106.371 416.431C104.514 416.817 103.791 415.749 103.228 414.223C102.032 410.965 100.8 407.724 99.4971 404.52C95.4533 394.584 90.2936 385.114 87.3835 374.702C84.3752 363.914 85.4197 353.843 92.5342 344.867C93.8911 343.153 93.3912 342.497 91.6416 341.788C88.1334 340.37 84.7144 338.719 81.1884 337.327C75.4664 335.074 69.6551 333.109 63.3885 333.36C56.756 333.62 51.8909 336.735 49.329 342.937C47.5526 347.237 48.4274 351.321 51.5339 354.794C53.9976 357.55 57.5773 358.331 61.0051 356.904C65.2185 355.153 67.1288 351.85 66.8075 347.326C66.6557 345.244 67.6376 345.02 69.2088 345.504C71.8064 346.321 73.5382 348.161 74.8326 350.477C80.9563 361.391 74.9665 374.658 62.7815 377.18C53.4085 379.119 44.8567 375.16 40.197 366.714C37.5904 362.002 36.6352 356.868 36.3853 351.554C36.3406 350.683 36.6888 349.49 35.9211 349.032C34.8677 348.412 34.1447 349.624 33.3859 350.172C25.9499 355.575 18.0052 356.751 9.36411 353.43C7.04317 352.541 6.39152 351.24 6.7843 348.861C8.24828 339.993 12.9527 333.674 21.0581 329.904C22.1918 329.375 23.3166 328.836 24.8162 328.127C23.3166 327.185 22.29 326.547 21.2723 325.892C16.8001 323.011 12.9884 319.466 10.3728 314.753C5.48992 305.939 7.26634 295.446 14.738 288.768C23.5219 280.915 37.7778 283.904 42.7054 294.639C43.4195 296.191 43.8212 297.798 43.7052 299.521C43.482 302.717 42.8214 303.076 40.0988 301.496C36.3049 299.288 31.7255 299.889 28.7529 302.977C25.8339 306.02 25.459 310.265 27.8424 314.098C29.9312 317.455 32.9306 319.313 36.9209 319.51C44.4729 319.896 50.0074 315.848 53.3728 307.303C56.4971 299.387 57.0059 290.959 57.9879 282.629C58.2111 280.753 57.1666 280.609 55.7473 280.807C42.5447 282.701 32.7342 276.777 24.5038 267.137C18.3265 259.902 13.2472 251.842 7.42702 244.338C5.12393 241.376 3.24039 238.01 0 235.874C0 235.201 0 234.528 0 233.855C3.05293 231.036 5.42744 227.643 7.92692 224.358C13.7471 216.711 18.8711 208.543 25.2626 201.335C33.4216 192.126 43.0803 186.525 55.8633 188.581C57.8272 188.895 58.1932 188.123 57.979 186.409C57.2113 180.413 56.7917 174.372 55.3724 168.475C54.3726 164.319 53.0246 160.298 50.6055 156.717C47.0884 151.511 42.1519 149.267 35.9657 149.886C30.931 150.389 26.5927 154.949 26.2534 159.912C25.9856 163.862 28.8422 167.667 32.9485 168.861C35.7158 169.669 38.3045 169.166 40.554 167.488C42.5893 165.962 43.2499 166.878 43.5713 168.834C44.1961 172.595 42.625 175.629 40.3041 178.34C34.957 184.614 26.4855 186.723 19.4424 183.599C11.9082 180.26 6.59684 170.89 7.68589 162.749C8.81066 154.338 13.8096 148.558 20.4689 143.944C21.7097 143.092 22.9863 142.293 24.3163 141.431C23.2094 139.977 21.799 139.807 20.6385 139.241C12.9705 135.507 8.43574 129.44 6.83786 121.02C6.31118 118.256 6.93605 116.712 9.73904 115.725C17.907 112.843 25.4857 113.714 32.636 118.624C33.6894 119.342 34.4928 120.572 36.2335 120.58C36.296 119.324 36.3317 118.112 36.412 116.9C36.8762 109.558 38.7508 102.746 44.1158 97.3781C54.4797 87.0291 72.7527 91.1848 76.4662 104.693C78.3943 111.712 75.7788 120.248 70.8245 123.094C67.7537 124.862 66.9057 124.404 66.8253 120.94C66.7182 116.47 63.942 113.005 59.6572 112.009C55.6759 111.084 51.9713 112.816 49.9092 116.721C48.0078 120.32 47.9096 124 49.8467 127.653C53.471 134.484 60.1214 137.186 69.3962 135.525C77.1535 134.143 84.1878 130.723 91.3648 127.662C93.5072 126.747 93.7304 125.984 92.2664 124.108C86.0892 116.182 84.5091 107.216 86.6694 97.4679C87.5888 93.3031 88.9457 89.282 90.5347 85.3326C94.632 75.1631 99.747 65.4334 103.237 55.0125C103.862 53.1455 104.987 52.6339 106.808 52.9929C117.315 55.0663 128.018 55.5869 138.605 56.9872C153.298 58.9259 166.269 63.4677 172.187 78.9509C172.723 80.3511 173.535 80.1536 174.508 79.4356C181.132 74.5168 187.979 69.8584 193.272 63.3689C195.629 60.4787 197.459 57.2923 198.191 53.5764C199.842 45.202 193.852 37.2494 186.059 37.42C181.65 37.5187 178.489 39.9152 177.436 43.9723C176.374 48.0473 178.088 52.1043 181.81 54.2944C184.613 55.946 184.622 56.8256 181.846 58.6118C180.302 59.6081 178.579 60.012 176.776 60.1287C168.438 60.6672 160.1 54.3214 158.315 46.0906C155.619 33.6502 166.153 21.5239 179.364 21.847C184.488 21.9727 189.202 23.5255 193.718 25.8502C194.736 26.3798 195.62 27.421 196.977 27.1248C197.039 26.8555 197.155 26.6401 197.137 26.4247C197.057 25.4194 196.923 24.4231 196.843 23.4178C196.209 15.5999 198.432 8.82318 204.154 3.34796C205.395 2.22599 206.635 1.12197 207.858 0ZM102.595 390.742C102.407 390.733 102.22 390.724 102.032 390.724C102.086 390.877 102.148 391.029 102.202 391.191C103.889 396.415 106.746 401.091 109.04 406.037C109.397 406.809 109.977 407.267 110.879 407.204C116.44 406.791 122.01 406.387 128.491 405.902C123.064 401.782 120.894 396.9 120.403 391.254C120.207 388.983 119.207 389.396 117.806 390.042C112.834 392.331 107.763 392.636 102.595 390.742ZM307.498 299.809C306.249 309.511 305.704 311.459 303.276 315.023C298.447 322.113 289.44 324.357 282.021 320.318C276.915 317.536 275.228 312.527 277.665 307.555C278.495 305.858 279.165 304.916 281.414 306.056C284.833 307.797 287.699 306.397 289.252 302.851C291.752 297.134 288.895 291.56 282.789 290.258C274.184 288.427 265.328 295.411 264.588 304.674C263.981 312.294 266.685 318.658 272.657 323.244C285.753 333.306 300.455 336.986 316.702 333.468C324.887 331.7 332.689 328.648 340.661 326.153C346.401 324.357 352.132 322.455 358.291 322.966C360.3 323.137 360.407 322.266 359.443 320.83C356.452 316.369 355.131 311.28 353.953 306.146C351.81 296.883 350.561 287.377 347.445 278.375C342 262.658 331.386 251.743 315.934 245.783C309.641 243.36 303.41 244.195 297.679 247.812C291.243 251.887 288.547 259.391 290.832 266.526C291.752 269.381 293.349 271.768 295.902 273.402C299.705 275.834 304.463 274.829 307.48 270.996C310.078 267.693 309.703 265.414 305.659 261.707C304.588 260.728 304.945 260.046 305.409 259.112C307.712 254.481 312.765 252.749 317.648 254.957C324.379 257.991 328.36 266.284 326.414 273.447C324.843 279.236 321.317 283.554 316.211 286.614C315.443 287.072 314.327 287.189 314.006 288.311C322.218 291.982 330.886 289.083 336.09 281.067C336.555 280.349 336.742 279.075 337.724 279.137C338.813 279.2 339.081 280.475 339.492 281.354C341.866 286.408 340.938 291.174 338.063 295.698C337.126 297.179 336.028 298.543 334.841 300.186C341.884 301.765 345.562 306.253 347.097 312.806C347.427 314.206 347.659 315.409 345.821 315.992C340.438 317.688 335.314 317.742 330.592 314.098C329.77 313.461 329.315 312.24 327.931 312.249C327.262 313.811 326.691 315.382 325.932 316.863C323.798 321.045 320.647 324.052 315.952 325.084C314.541 325.39 312.72 325.955 311.774 324.959C310.712 323.846 312.354 322.58 312.863 321.449C316.505 313.443 314.327 304.162 307.498 299.809ZM313.31 181.194C319.505 184.237 323.665 188.267 325.869 194.101C328.78 201.811 325.182 210.85 317.871 214.296C313.185 216.514 308.694 215.248 305.883 211.02C304.776 209.36 304.624 208.328 306.579 206.999C309.667 204.899 309.935 201.901 307.837 198.822C304.213 193.509 297.527 193.239 293.332 198.248C287.993 204.621 289.234 215.015 296.17 220.427C302.276 225.193 309.23 226.252 316.362 223.443C331.502 217.474 341.902 206.649 347.418 191.247C349.338 185.87 350.311 180.215 351.569 174.651C353.587 165.738 354.417 156.457 359.496 148.477C360.737 146.529 359.318 146.413 357.979 146.476C351.944 146.772 346.32 144.977 340.688 143.19C332.306 140.534 324.093 137.24 315.434 135.597C299.277 132.545 284.699 136.405 271.961 146.754C266.31 151.34 263.945 157.659 264.65 164.984C265.57 174.498 275.175 181.436 283.735 178.842C289.627 177.056 292.01 170.584 288.672 165.361C287.092 162.883 284.673 161.627 282.111 163.036C278.817 164.84 278.031 162.91 277.174 160.55C275.844 156.896 276.701 153.405 279.593 150.775C282.084 148.513 285.11 147.436 288.404 147.167C298.759 146.341 307.016 154.913 307.23 166.608C307.248 167.631 306.713 168.78 307.552 169.768C314.845 164.364 316.684 155.415 312.39 146.915C311.979 146.099 310.721 145.273 311.605 144.294C312.283 143.54 313.515 143.891 314.497 144.016C320.826 144.842 324.638 148.773 326.825 154.482C327.655 156.636 327.994 157.812 330.395 155.586C334.894 151.43 340.322 151.691 345.812 153.351C347.079 153.737 347.606 154.455 347.294 155.846C346.079 161.223 343.812 166.007 338.34 167.937C335.144 169.059 335.046 169.741 337.09 172.308C341.982 178.456 342.08 185.107 337.581 190.753C335.287 186.445 332.359 182.836 327.878 180.925C323.236 178.95 318.612 178.932 313.31 181.194ZM104.175 181.194C100.184 179.488 96.828 179.094 93.3466 179.767C87.0086 180.987 82.8488 185.08 79.8315 190.888C79.162 190.017 78.7603 189.622 78.5104 189.155C75.0379 182.648 76.6268 176.814 81.0009 171.455C82.3667 169.786 82.4738 169.139 80.144 168.403C74.3238 166.563 71.5922 161.968 70.28 156.304C69.9765 154.994 70.0122 153.872 71.61 153.387C77.1 151.726 82.3578 151.628 87.1068 155.496C87.8209 156.08 88.2405 157.175 89.4099 157.076C90.4722 154.922 91.347 152.723 92.561 150.748C95.0516 146.682 98.7561 144.411 103.514 143.989C105.612 143.801 106.888 144.061 105.317 146.628C103.22 150.066 102.452 153.899 102.943 157.92C103.55 162.865 105.871 166.77 110.343 170.36C109.968 163.171 111.405 157.435 115.538 152.588C120.609 146.637 129.643 145.3 136.186 149.5C140.819 152.471 142.14 157.282 139.721 161.995C138.882 163.637 138.105 164.257 136.114 163.35C132.365 161.627 129.375 163.153 127.973 167.075C125.992 172.622 128.589 177.559 134.258 179.031C141.747 180.969 150.451 175.521 152.343 167.425C154.361 158.817 151.54 151.61 144.836 146.206C133.74 137.257 120.841 133.559 106.754 134.87C96.7119 135.803 87.3925 139.887 77.8498 142.885C71.9046 144.752 65.9862 146.817 59.6125 146.503C57.1845 146.386 57.2737 147.454 58.336 149.105C60.7284 152.83 61.9692 157.004 63.0047 161.259C65.3435 170.818 66.6111 180.646 69.664 190.026C74.9397 206.236 85.6517 217.546 101.461 223.559C109.504 226.62 117.154 224.951 123.242 218.569C129.268 212.25 128.571 201.156 122.126 196.39C118.315 193.571 113.467 194.272 110.191 198.104C107.361 201.416 107.674 203.813 111.727 207.672C112.905 208.794 112.378 209.593 111.834 210.581C109.325 215.131 104.3 216.63 99.4524 214.27C92.0433 210.661 88.5976 201.488 91.7487 193.688C94.0161 188.015 98.1134 184.084 104.175 181.194ZM202.217 352.73C198.45 355.198 194.816 356.76 190.755 357.227C179.936 358.465 170.964 350.351 171.723 339.948C172.089 334.904 175.347 331.565 180.186 331.197C182.176 331.044 183.587 331.206 183.649 333.863C183.712 336.816 185.506 338.557 188.487 338.907C194.852 339.643 199.744 334.024 198.155 327.795C196.441 321.063 188.871 316.028 181.694 316.872C173.008 317.886 165.778 324.968 164.483 334.491C162.198 351.33 166.626 366.265 178.222 378.742C182.623 383.472 187.586 387.681 192.317 392.098C197.941 397.339 204.082 402.105 207.591 409.25C208.376 410.839 209.162 410.615 209.849 409.187C212.929 402.877 218.133 398.434 223.168 393.857C229.033 388.525 235.219 383.508 240.396 377.485C251.465 364.578 255.607 349.543 252.572 332.786C251.01 324.151 243.77 317.787 235.665 316.863C227.319 315.911 218.883 322.84 219.008 330.551C219.079 334.922 222.409 338.378 227.051 338.898C231.148 339.356 232.809 337.983 233.906 332.768C234.255 331.134 235.237 331.233 236.326 331.197C242.405 330.964 246.538 336.035 245.725 342.713C244.574 352.209 236.406 358.385 226.622 357.227C222.587 356.751 218.945 355.198 215.553 352.954C214.857 354.417 215.41 355.458 215.741 356.5C218.088 363.824 224.284 368.401 232.335 368.877C233.246 368.931 234.549 368.33 234.978 369.523C235.335 370.511 234.389 371.381 233.799 372.171C229.756 377.611 224.123 378.535 217.946 377.557C215.991 377.243 215.357 377.404 215.883 379.621C217.392 385.931 214.536 390.67 210.153 394.808C209.144 395.76 208.305 395.778 207.287 394.826C203.065 390.895 200.172 386.281 201.44 380.294C202.101 377.153 201.029 377.332 198.7 377.655C192.861 378.472 187.568 377.377 183.765 372.324C183.122 371.471 182.016 370.538 182.623 369.389C183.149 368.384 184.444 368.931 185.39 368.868C194.593 368.249 201.565 361.795 202.217 352.73ZM79.8315 279.021C87.9102 289.478 95.5425 292.475 103.55 288.041C102.514 287.413 101.604 286.866 100.702 286.3C96.1853 283.473 92.9895 279.559 91.3113 274.479C88.8743 267.11 92.4985 258.52 99.3989 255.145C104.184 252.803 108.808 254.086 111.637 258.457C112.601 259.956 112.914 260.935 111.039 262.227C107.62 264.588 107.415 267.927 110.084 271.149C114.092 276.005 120.118 275.96 124.162 271.059C129.482 264.606 128.036 253.942 120.957 248.674C114.628 243.961 107.549 243.163 100.381 246.169C85.4107 252.444 75.0379 263.295 69.8158 278.841C67.8519 284.676 66.7985 290.761 65.4685 296.775C63.6206 305.158 62.6744 313.838 57.729 321.243C56.881 322.508 57.3005 323.146 58.7734 323.011C66.1112 322.347 72.8062 324.932 79.5816 327.095C86.9015 329.429 94.0964 332.229 101.648 333.692C117.779 336.816 132.437 333.154 145.202 322.84C151.683 317.608 154.289 310.463 152.379 302.133C150.486 293.858 141.774 288.382 134.088 290.393C127.982 291.991 125.376 298.606 128.777 303.973C130.25 306.298 132.294 307.321 135.043 306.531C138.846 305.445 139.515 305.831 140.569 309.673C141.604 313.47 140.346 316.539 137.444 318.927C134.079 321.692 130.098 322.589 125.849 322.167C117.315 321.315 110.709 313.317 110.289 303.543C110.236 302.313 110.771 300.931 109.691 299.728C109.209 300.06 108.817 300.275 108.504 300.572C102.354 306.253 101.059 314.502 105.299 322.67C106.594 325.165 105.817 325.515 103.559 325.363C98.4616 325.013 94.757 322.428 92.2218 318.11C91.106 316.216 90.2936 314.143 89.2224 311.899C84.4645 317.105 78.7782 318.155 72.3599 316.261C70.7709 315.794 69.7801 315.112 70.2443 313.201C71.5922 307.564 74.2345 303.031 80.019 300.967C80.7778 300.697 81.8311 300.805 82.1793 299.782C75.6181 289.935 74.9397 283.787 79.8315 279.021ZM215.419 116.254C218.285 114.89 220.927 113.283 223.962 112.583C234.781 110.097 244.163 115.994 245.681 126.307C246.636 132.85 243.021 137.796 237.013 138.218C235.076 138.353 234.005 138.029 233.826 135.624C233.532 131.791 230.934 129.996 227.113 130.418C220.9 131.1 217.499 136.683 219.633 142.697C222.061 149.545 230.238 154.006 237.558 152.166C245.806 150.093 251.099 144.582 252.59 136.324C255.634 119.441 251.314 104.334 240.012 91.4451C234.63 85.3057 228.247 80.1716 222.248 74.6694C217.562 70.37 212.741 66.1604 209.92 60.2454C209.135 58.6028 208.412 58.3964 207.555 60.1915C204.672 66.2053 199.762 70.4777 194.986 74.8489C188.969 80.3421 182.614 85.4942 177.24 91.6516C166.305 104.173 162.127 118.866 164.555 135.283C166.055 145.398 174.678 152.83 183.765 152.561C191.558 152.328 198.592 145.766 198.476 138.837C198.405 134.529 195.013 130.992 190.416 130.436C186.425 129.951 184.676 131.414 183.542 136.566C183.203 138.101 182.337 138.218 181.167 138.254C175.981 138.433 172.107 134.807 171.714 129.404C170.893 118.085 181.167 109.98 193.076 112.502C196.343 113.193 199.191 114.854 202.226 116.479C201.565 107.35 194.468 100.995 184.827 100.556C183.997 100.52 182.872 101.076 182.399 100.053C181.98 99.1553 182.81 98.3744 183.301 97.6743C187.247 92.0106 192.861 90.7181 199.226 91.7772C201.404 92.1452 201.958 91.8131 201.467 89.4794C200.172 83.331 202.895 78.6277 207.242 74.6066C208.233 73.6911 209.117 73.6103 210.135 74.5617C214.33 78.4931 217.169 83.0348 215.999 89.0845C215.509 91.6067 216.017 92.1542 218.597 91.7144C223.891 90.8079 228.818 91.7683 232.71 95.8881C233.773 97.0191 235.362 98.3655 234.942 99.8016C234.469 101.426 232.425 100.475 231.104 100.6C222.516 101.399 215.401 108.311 215.419 116.254ZM138.578 205.249C137.632 206.12 137.784 207.331 137.534 208.39C131.937 231.799 109.45 241.017 89.2403 228.146C81.6437 223.308 75.0736 217.321 69.4408 210.266C66.4236 206.497 63.085 203.059 58.8181 200.671C48.3738 194.81 33.7787 200.519 29.958 211.927C28.6904 215.715 29.1814 219.215 31.4042 222.473C33.5823 225.669 36.5638 226.925 39.6971 225.911C42.5358 224.987 44.6692 223.317 44.821 220.023C44.9638 216.908 43.0624 214.709 38.7955 213.498C36.8941 212.959 36.787 212.367 37.7689 210.823C42.6429 203.167 53.8727 202.924 58.9787 210.428C61.5675 214.243 62.1656 218.479 61.4515 222.958C61.2461 224.224 60.7819 225.633 62.9422 225.112C71.61 223.057 77.9391 227.473 84.0449 232.661C85.6607 234.034 86.0088 235.004 84.1878 236.574C78.0016 241.888 71.5743 246.331 62.7905 244.186C61.4157 243.854 60.9426 244.276 61.2997 245.73C61.8978 248.153 61.9335 250.639 61.3979 253.063C60.2106 258.457 57.4076 262.676 51.8285 264.049C46.3475 265.396 41.7324 263.502 38.2063 259.077C37.0905 257.676 36.0014 256.402 39.0722 255.809C42.2322 255.199 44.6068 253.314 44.8031 249.733C44.9817 246.582 43.0714 244.76 40.3844 243.701C37.2154 242.453 34.5017 243.288 32.2433 245.801C28.6369 249.832 28.2977 255.109 31.297 260.468C37.2244 271.068 51.159 274.255 61.0408 267.289C64.8257 264.624 67.7894 261.132 70.6995 257.587C76.4215 250.612 83.1791 244.805 90.9007 240.183C97.0958 236.476 103.791 234.6 111.03 235.533C124.197 237.23 133.785 246.331 137.337 260.27C137.668 261.581 137.507 263.125 138.882 264.552C140.631 261.123 142.238 257.955 143.872 254.795C149.192 244.473 157.297 238.298 169.116 237.58C172 237.4 174.883 237.068 177.74 236.628C179.195 236.404 181.498 236.377 181.444 234.618C181.391 232.984 179.088 232.876 177.615 232.652C174.865 232.239 172.089 231.988 169.313 231.799C158.592 231.09 150.495 226.127 145.148 216.738C143.55 213.92 142.167 210.975 140.631 208.121C140.087 207.107 139.846 205.796 138.578 205.249ZM274.755 367.881C267.533 361.23 267.757 353.107 269.247 344.652C269.685 342.174 270.515 341.501 273.014 342.372C281.209 345.208 288.261 349.211 290.448 358.932C293.644 355.835 296.804 353.897 300.651 353.179C310.846 351.285 318.71 360.422 315.3 370.241C314.193 373.428 313.774 373.545 311.283 371.372C308.132 368.617 304.374 368.527 302.026 371.148C299.857 373.563 300.062 378.203 302.455 380.698C303.829 382.134 305.579 382.817 307.516 383.014C312.444 383.535 316.121 381.479 318.898 377.476C325.798 367.513 322.272 352.999 311.551 347.452C308.15 345.693 304.508 344.652 300.759 344.068C291.109 342.578 281.896 339.751 273.273 335.065C253.34 324.25 249.903 300.724 265.918 284.586C266.98 283.518 268.14 282.548 269.819 281.022C265.382 280.439 261.874 280.933 258.392 281.094C246.359 281.651 236.951 277.163 230.372 266.859C228.809 264.417 227.015 262.119 225.185 259.875C224.462 258.978 223.391 257.623 222.177 258.403C221.293 258.978 221.713 260.54 222.132 261.563C223.569 265.081 225.078 268.573 226.631 272.038C229.898 279.344 230.264 286.722 227.354 294.226C225.846 298.112 223.614 301.586 221.347 305.05C220.213 306.792 218.829 308.407 218.035 310.876C219.981 310.337 221.552 309.888 223.123 309.467C244.842 303.731 263.025 317.94 262.811 340.514C262.722 349.911 260.838 358.959 257.5 367.719C255.982 371.705 254.866 375.78 254.429 380.052C252.92 394.826 267.551 403.524 277.656 401.935C282.557 401.163 285.789 398.533 287.395 393.884C288.493 390.679 287.77 387.888 285.083 385.779C282.807 383.992 280.263 383.247 277.674 385.007C274.773 386.981 274.3 389.943 275.362 393.058C276.174 395.454 275.282 395.76 273.255 395.472C267.801 394.7 263.891 391.837 262.079 386.622C260.169 381.138 262.186 376.551 266.069 372.611C268.364 370.277 271.354 369.111 274.755 367.881ZM199.387 310.256C197.307 306.989 195.388 304 193.495 301.002C187.291 291.165 186.256 281.013 191.505 270.386C192.986 267.388 194.575 264.408 195.415 261.123C195.656 260.172 196.182 258.951 195.209 258.341C194.192 257.694 193.37 258.789 192.674 259.454C190.139 261.859 188.371 264.875 186.443 267.738C180.257 276.947 171.652 281.345 160.654 281.085C157.315 281.004 153.977 280.807 150.638 280.726C149.853 280.708 148.835 280.224 148.299 281.489C149.103 282.243 149.915 282.997 150.719 283.769C167.751 300.105 164.483 324.214 143.711 335.308C136.177 339.329 128.214 342.085 119.787 343.494C114.503 344.373 109.254 345.388 104.559 348.188C94.0607 354.444 91.8022 370.574 100.14 379.442C102.996 382.484 106.46 383.499 110.45 382.951C113.923 382.466 116.297 380.223 116.824 376.982C117.279 374.119 116.672 371.588 114.003 370.008C111.432 368.482 108.558 369.191 105.585 371.974C105.505 372.046 105.424 372.126 105.353 372.216C104.264 373.76 103.586 373.311 102.8 371.857C99.4703 365.7 102.005 357.155 108.299 354.265C114.182 351.563 119.582 353.044 124.59 356.733C125.34 357.289 125.742 358.393 127.232 358.349C129.196 349.041 136.346 345.262 144.407 342.372C146.889 341.483 147.764 342.174 148.219 344.625C149.781 353.089 149.87 361.185 142.604 367.998C147.076 369.173 150.477 371.166 153.031 374.424C159.449 382.619 154.994 393.866 144.764 395.392C142.693 395.697 141.194 395.894 142.167 392.825C143.104 389.88 142.658 386.963 139.864 385.043C137.275 383.265 134.749 383.983 132.446 385.725C129.696 387.807 129.018 390.634 130.062 393.812C131.365 397.788 133.954 400.517 138.114 401.594C149.683 404.574 162.734 394.781 163.1 382.808C163.252 378.023 162.127 373.464 160.422 369.057C157.297 360.961 155.468 352.595 154.691 343.943C152.477 319.421 171.652 303.193 195.245 309.691C196.352 310.023 197.441 310.75 199.387 310.256ZM275.871 73.9424C275.639 74.9207 275.514 75.567 275.335 76.2043C274.443 79.3817 274.746 82.2809 277.612 84.3094C280.183 86.1225 282.709 85.3685 285.021 83.6362C287.708 81.6256 288.556 78.6547 287.315 75.2439C285.931 71.4471 283.414 68.8352 279.379 67.785C267.917 64.814 255 74.3104 254.429 86.1764C254.161 91.7952 255.768 97.0101 257.705 102.171C260.767 110.294 262.552 118.696 262.802 127.393C263.499 151.655 244.824 166.213 221.65 159.517C220.668 159.239 219.695 158.368 218.41 159.167C219.552 162.264 221.65 164.759 223.409 167.434C230.238 177.846 231.336 188.563 225.569 199.837C224.203 202.511 223.141 205.357 222.07 208.175C221.73 209.055 221.338 210.356 222.311 210.949C223.319 211.568 224.159 210.527 224.864 209.853C227.372 207.421 229.157 204.423 231.077 201.551C237.263 192.324 245.94 188.033 256.893 188.24C260.231 188.303 263.561 188.59 266.9 188.707C267.694 188.734 268.667 189.2 269.381 188.069C268.658 187.387 267.935 186.714 267.212 186.041C249.698 169.822 252.786 145.273 273.764 134.053C281.593 129.861 289.904 127.097 298.67 125.688C303.749 124.871 308.73 123.731 313.193 121.002C323.423 114.746 325.53 98.6976 317.309 89.9193C314.479 86.8944 311.024 85.7904 307.016 86.4456C303.356 87.038 301.151 89.1563 300.687 92.3966C300.285 95.2419 300.723 97.8718 303.49 99.3528C306.775 101.103 309.56 99.8734 311.863 97.3602C313.095 96.0138 313.783 95.8612 314.729 97.6474C318.969 105.663 313.542 115.698 304.552 116.335C299.866 116.667 295.769 115.186 292.287 112.062C291.189 111.075 290.448 110.42 289.823 112.493C287.128 121.469 279.727 124.727 271.818 127.357C270.586 127.77 269.863 127.447 269.613 126.19C268.015 118.013 266.917 109.89 273.336 103.06C274.951 101.336 274.014 101.085 272.434 100.565C268.123 99.1374 264.811 96.3908 262.793 92.2799C260.597 87.792 260.829 83.349 263.865 79.2919C266.792 75.3606 270.729 73.5385 275.871 73.9424ZM278.933 204.28C277.96 206.012 277.308 207.134 276.701 208.283C275.014 211.433 273.496 214.691 271.64 217.743C266.962 225.426 260.303 230.246 251.251 231.359C247.163 231.862 243.065 232.239 238.995 232.84C237.772 233.02 235.87 233.199 235.933 234.815C235.986 236.045 237.745 236.341 238.923 236.503C242.78 237.023 246.654 237.436 250.528 237.858C259.696 238.863 266.605 243.486 271.417 251.268C273.354 254.4 274.898 257.766 276.674 260.997C277.299 262.128 277.54 263.556 279.12 264.336C279.495 262.757 279.825 261.267 280.2 259.795C285.896 237.768 307.9 228.783 327.208 240.613C335.278 245.559 342.196 251.824 348.106 259.238C351.114 263.017 354.497 266.419 358.764 268.779C369.325 274.614 384.098 268.528 387.633 256.94C388.937 252.659 387.874 248.97 385.071 245.712C382.866 243.145 380.072 242.436 376.921 243.728C374.234 244.823 372.395 246.717 372.619 249.841C372.86 253.224 375.109 255.109 378.153 255.747C380.831 256.303 380.554 257.281 379.269 259.05C373.431 267.074 361.558 265.952 357.3 256.904C355.685 253.467 355.185 249.858 356.051 246.098C356.336 244.868 356.408 243.764 354.542 244.204C345.606 246.322 339.108 241.726 332.957 236.233C332.279 235.632 331.011 234.959 332.225 233.837C337.617 228.828 343.268 224.322 351.212 224.574C352.757 224.619 354.596 225.866 355.711 224.897C357.059 223.712 355.622 221.773 355.613 220.149C355.551 213.39 359.229 207.385 364.781 205.491C369.771 203.786 375.743 205.743 379.135 210.096C380.537 211.891 380.911 213.004 378.073 213.632C375.002 214.305 372.824 216.235 372.619 219.601C372.44 222.545 374.19 224.385 376.725 225.534C379.858 226.952 382.661 226.297 384.92 223.811C388.419 219.96 388.99 215.634 387.071 210.733C383.67 202.018 369.173 193.051 356.97 201.632C352.989 204.432 349.811 207.987 346.758 211.72C341.116 218.614 334.466 224.376 326.86 228.972C308.034 240.344 286.458 231.709 280.468 210.428C279.968 208.642 279.567 206.829 278.933 204.28ZM157.458 146.134C158.306 144.824 157.449 143.882 157.074 142.894C156.119 140.381 155.298 137.832 154.977 135.139C153.673 124.099 155.789 113.526 159.386 103.176C160.788 99.1553 162.243 95.1701 162.868 90.9335C164.76 78.0443 154.03 66.3758 141.104 67.2554C135.57 67.6324 131.499 70.6303 130.035 75.4683C129.062 78.6636 129.643 81.482 132.374 83.5824C134.659 85.3416 137.177 86.0956 139.783 84.3363C142.595 82.4424 143.104 79.5253 142.158 76.5813C141.158 73.4756 142.818 73.7 144.773 73.9424C153.843 75.0823 158.806 84.9826 154.298 92.98C152.174 96.7408 148.978 99.272 144.898 100.591C143.416 101.076 142.64 101.435 144.068 102.961C150.46 109.792 149.576 117.87 147.844 126.065C147.639 127.025 147.309 127.86 146.094 127.465C138.551 125.015 131.33 122.133 128.089 113.894C127.697 112.906 127.777 111.641 126.545 110.923C124.01 113.283 121.189 115.267 117.716 115.985C112.584 117.035 107.852 116.281 104.362 112.009C100.943 107.826 100.631 103.069 102.55 98.0962C103.291 96.1754 103.996 95.7625 105.737 97.4679C109.932 101.588 115.279 100.699 116.681 95.8792C117.815 91.9927 115.77 87.9266 111.896 86.7867C107.486 85.4942 103.532 86.4008 100.265 89.7936C91.9183 98.4552 93.8911 114.504 104.094 120.904C108.335 123.56 113.101 124.655 117.94 125.571C133.133 128.443 147.603 132.761 157.458 146.134ZM199.298 159.239C199.146 159.006 198.985 158.772 198.833 158.548C182.694 164.23 168.991 160.98 158.208 147.095C165.715 163.808 160.449 176.93 147.407 188.814C152.013 188.59 155.637 188.383 159.261 188.231C171.134 187.728 180.462 192.225 186.988 202.386C188.55 204.827 190.344 207.125 192.156 209.387C192.888 210.302 193.933 211.676 195.129 211.056C196.441 210.374 195.647 208.812 195.254 207.735C194.415 205.428 193.433 203.176 192.415 200.932C190.844 197.467 189.255 194.002 188.541 190.232C187.041 182.289 189.309 175.171 193.406 168.502C195.325 165.388 197.334 162.327 199.298 159.239ZM227.399 234.788C227.435 224.367 219.195 215.912 208.912 215.831C198.485 215.742 189.96 224.26 189.978 234.734C189.996 245.092 198.36 253.458 208.697 253.467C219.088 253.476 227.363 245.209 227.399 234.788ZM260.731 195.097C247.859 195.008 234.835 203.813 230.193 215.302C229.934 215.948 229.8 216.496 230.068 217.205C232.933 224.798 235.004 226.1 243.003 225.247C243.44 225.202 243.887 225.166 244.324 225.103C257.669 223.245 267.667 216.908 272.747 199.271C273.282 197.413 272.532 196.919 270.988 196.56C267.408 195.735 263.793 195.196 260.731 195.097ZM157.074 195.097C153.745 195.214 150.469 195.771 147.184 196.345C144.764 196.767 144.193 197.682 144.934 200.187C149.621 216.065 159.092 223.685 176.356 225.507C180.311 225.92 182.658 225.4 185.06 221.333C187.702 216.864 186.907 214.171 184.301 210.536C177.543 201.12 169.143 194.918 157.074 195.097ZM157.271 274.291C158.824 274.174 160.386 274.156 161.93 273.94C174.187 272.226 181.391 263.977 187.256 254.023C187.622 253.404 187.836 252.803 187.363 252.165C185.622 249.823 184.22 247.282 183.006 244.635C182.614 243.782 181.792 243.737 180.998 243.737C161.948 243.782 150.21 251.142 144.738 269.973C144.238 271.697 144.675 272.442 146.362 272.801C149.96 273.555 153.566 274.255 157.271 274.291ZM208.662 262.38C206.751 262.99 204.118 260.576 202.467 263.565C193.236 280.241 193.897 293.445 206.323 307.303C208.296 309.502 209.394 309.179 211.215 307.169C222.257 295.043 224.078 282.755 217.035 267.577C215.366 263.959 213.929 260.315 208.662 262.38ZM259.964 274.201C263.552 274.264 267.042 273.59 270.551 272.917C272.639 272.522 273.264 271.804 272.631 269.542C268.212 253.736 257.669 245.155 241.378 243.845C237.111 243.504 234.585 244.222 232.166 248.44C229.881 252.435 230.372 254.831 232.692 258.143C239.379 267.738 247.68 274.335 259.964 274.201ZM208.019 207.053C214.098 207.071 214.187 207.116 214.839 205.958C223.962 189.676 224.132 175.907 210.385 161.313C208.697 159.526 207.912 160.46 206.725 161.69C195.281 173.573 193.263 186.346 200.36 201.659C202.074 205.375 203.538 209.144 208.019 207.053ZM289.127 405.803C292.591 406.136 295.197 406.513 297.813 406.593C301.125 406.692 305.079 408.523 307.561 406.674C309.962 404.888 310.926 401.037 312.292 397.995C313.336 395.67 314.979 393.525 315.175 390.482C309.569 392.842 304.401 392.241 299.348 389.907C298.116 389.342 297.241 389.207 297.09 390.949C296.581 396.702 294.456 401.693 289.127 405.803ZM396.872 219.888C396.587 219.942 396.31 219.996 396.024 220.05C395.426 225.902 392.213 230.058 387.714 233.289C386.026 234.501 386.437 235.174 387.856 236.179C390.722 238.199 393.114 240.712 394.552 243.961C395.319 245.712 395.766 247.606 396.542 249.993C399.872 245.065 402.853 240.631 405.862 236.206C406.487 235.291 406.719 234.429 406.04 233.433C402.978 228.918 399.934 224.403 396.872 219.888ZM101.97 78.0353C102.184 78.2687 102.398 78.5021 102.612 78.7265C107.951 76.4017 113.092 77.1916 118.127 79.4356C119.064 79.8484 120.118 80.396 120.278 78.6726C120.85 72.8653 122.814 67.7132 127.58 63.728C121.903 62.956 116.52 62.5432 111.146 62.1303C110.147 62.0495 109.441 62.4175 109.004 63.342C106.665 68.2428 104.317 73.1435 101.97 78.0353ZM315.193 78.9329C315.3 78.6636 315.407 78.3854 315.514 78.1161C313.113 73.1346 310.712 68.144 308.302 63.1625C307.989 62.5073 307.454 62.0944 306.722 62.1393C301.142 62.5342 295.554 62.9471 288.913 63.4318C294.483 67.6234 296.509 72.6409 297.09 78.3764C297.188 79.3009 297.411 80.2703 298.723 79.6689C304.044 77.2455 309.462 76.2402 315.193 78.9329ZM20.6028 219.754C17.416 224.511 14.2381 229.268 11.0602 234.043C10.712 234.573 10.8817 235.12 11.203 235.605C14.3452 240.272 17.4963 244.94 21.2277 250.478C21.9776 243.486 25.2983 239.222 29.958 235.874C31.3684 234.86 30.8775 234.169 29.7884 233.37C25.2179 230.058 22.0311 225.812 20.6028 219.754Z" fill="#D3AE50"/>
</svg>
