<svg width="375" height="539" viewBox="0 0 375 539" fill="none" xmlns="http://www.w3.org/2000/svg">
<mask id="path-1-inside-1_73_752" fill="white">
<path d="M185.797 538.925C182.402 534.173 179.608 528.824 175.522 524.759C165.608 514.912 152.899 509.637 139.755 505.513C126.01 501.194 112.115 497.339 98.3398 493.065C93.7091 491.571 89.1698 489.81 84.7449 487.791C63.0733 478.197 51.822 461.601 50.9907 438.001C50.9907 436.88 50.8555 435.774 50.7504 434.654C50.6206 434.318 50.4544 433.997 50.2547 433.697C21.3075 442.559 -2.86273 431.874 -24.4342 413.659C-46.0056 395.443 -58.8343 372.596 -56.6561 342.994C-60.6369 342.381 -64.5576 342.097 -68.3131 341.141C-93.2795 334.805 -110.585 318.562 -123.699 297.478C-136.392 277.066 -141.875 255.055 -136.002 231.146C-132.997 218.968 -128.235 211.197 -114.836 195.971C-115.091 195.567 -115.272 194.969 -115.677 194.73C-148.56 174.288 -165.82 143.312 -175.179 107.12C-181.901 80.4237 -182.813 52.6069 -177.853 25.5317C-175.915 14.3694 -171.153 3.46101 -166.316 -6.93925C-153.217 -35.1365 -134.875 -59.0452 -108.422 -76.6778C-72.9549 -100.318 -17.2537 -91.5311 10.8072 -68.3546C13.6313 -66.0235 15.6593 -65.7097 19.1894 -67.0247C46.2288 -77.156 74.1245 -83.1929 103.312 -80.9067C124.748 -79.2181 144.412 -72.5536 160.485 -57.7601C169.889 -49.1231 178.707 -39.8286 187.405 -31.2066C192.151 -36.8251 197.199 -43.7437 203.193 -49.7208C226.236 -72.6881 255.108 -80.1745 286.759 -80.0998C310.509 -80.0998 333.132 -74.6755 355.124 -66.2925C358.714 -64.9178 360.952 -65.112 364.017 -67.6374C386.414 -86.0321 412.583 -93.4587 441.064 -90.2908C492.8 -84.5378 538.556 -41.7712 549.222 8.91518C555.666 39.3688 557.409 69.8972 550.889 100.455C541.636 143.79 525.833 167.699 488.894 195.716C489.351 196.41 489.853 197.074 490.396 197.704C513.244 220.776 517.796 247.942 507.326 277.708C498.403 303.111 482.179 323.09 457.753 335.403C449.597 339.527 440.223 341.29 430.894 344.369C432.922 372.656 420.169 395.503 398.522 413.763C376.876 432.024 353.096 442.558 323.713 433.593C323.217 438.21 322.872 442.558 322.211 446.952C319.792 463.837 311.125 477.002 295.817 484.309C282.553 490.585 268.237 494.769 254.327 499.64C241.979 504.004 229.24 507.411 217.253 512.536C204.725 517.916 193.939 525.985 188.035 539L185.797 538.925ZM171.181 342.217C170.445 342.366 170.009 342.321 169.769 342.516C150.391 358.878 127.047 365.886 102.801 371.042C69.002 378.244 33.7005 376.84 0.65239 388.346C-5.19113 374.374 -1.25539 359.775 11.4381 348.627C21.5478 339.751 33.5954 334.76 46.6044 331.981C53.0638 330.606 59.6584 329.874 66.8989 328.738C59.5532 323.837 56.2334 317.083 54.596 309.417C52.3382 299.145 53.0517 288.446 56.654 278.56C64.4804 257.102 88.921 244.341 113.542 248.674C133.341 252.141 148.092 265.59 151.322 283.043C153.5 294.893 147.672 305.935 137.081 310.239C136.601 306.668 136.721 302.857 135.504 299.51C132.59 291.471 120.903 284.851 111.229 285.165C106.605 285.408 102.173 287.078 98.5494 289.944C94.9254 292.81 92.2896 296.728 91.0091 301.154C87.6291 311.913 92.331 323.777 103.027 331.294C126.13 347.611 160.11 333.655 166.614 304.994C171.376 283.88 163.445 266.561 149.129 251.543C136.6 238.379 121.353 228.86 105.265 220.671C95.4856 215.68 85.466 211.182 74.8455 206.132C74.1245 210.241 73.6888 213.349 73.0429 216.397C71.9643 222.621 70.5451 228.782 68.7917 234.852C68.1732 237.072 66.9297 239.07 65.2078 240.611C63.4859 242.152 61.3573 243.171 59.0725 243.549C53.8449 232.984 49.6087 223.286 44.4262 214.141C35.7736 198.884 26.0845 184.255 17.5821 168.864C-0.143753 136.916 -11.0497 102.951 -11.7257 66.0867C-12.4317 27.0409 7.98308 -4.98174 44.5914 -19.2821C83.0174 -34.225 119.971 -29.1444 155.183 -8.6577C157.015 -7.59676 158.818 -6.44614 160.636 -5.34037C160.212 -8.76948 159.038 -12.0645 157.195 -14.9935C139.079 -42.9068 112.626 -54.4727 80.0281 -52.5151C56.2935 -51.0208 34.2864 -42.862 13.0905 -32.656C8.82431 -30.6088 6.55598 -30.6985 3.38635 -34.5687C-10.4338 -51.4841 -27.8592 -62.243 -50.2267 -63.7821C-61.3807 -64.4335 -72.5636 -63.1492 -83.2749 -59.9866C-75.5537 -57.8049 -69.1844 -56.3704 -63.0855 -54.2186C-35.3251 -44.4161 -21.8204 -23.8546 -24.1938 5.19438C-24.8999 13.9061 -26.4621 22.5581 -27.754 31.21C-30.2326 47.7817 -34.1834 64.2637 -34.9645 80.8952C-36.0311 103.892 -31.9601 126.008 -13.5133 142.729C-13.3631 142.863 -13.5133 143.371 -13.6485 144.029C-30.0674 144.029 -43.8575 137.693 -55.5295 126.546C-67.0597 115.778 -73.9281 100.972 -74.6824 85.2585C-79.6697 90.8621 -83.6955 96.2714 -88.6678 100.739C-99.0028 110.138 -111.201 115.533 -125.501 114.442C-127.95 114.263 -131.225 112.948 -132.487 111.095C-134.359 108.4 -135.659 105.354 -136.307 102.142C-136.955 98.9304 -136.938 95.621 -136.257 92.4162C-133.748 80.3572 -125.261 72.8111 -116.008 65.8925C-112.402 63.1878 -108.497 60.8268 -104.546 58.1521C-123.308 48.7081 -131.15 36.1113 -128.581 20.1971C-126.493 7.1818 -117.134 -3.53228 -106.138 -5.34037C-108.031 7.12202 -101.902 15.8188 -92.3932 22.588C-81.983 29.9847 -70.0406 28.1467 -61.9138 18.2993C-48.3941 1.96669 -54.0874 -24.7064 -73.1652 -33.8365C-84.1027 -39.046 -96.4848 -40.4409 -108.316 -37.7964C-126.778 -33.9561 -137.489 -20.9707 -144.775 -4.92197C-155.665 18.9867 -159.526 44.3896 -157.859 70.4202C-155.455 107.897 -138.33 139.158 -114.16 167.101C-103.352 179.937 -90.0131 190.434 -74.9678 197.943C-94.6465 209.434 -103.87 227.246 -108.437 247.987C-111.158 259.401 -109.293 271.422 -103.239 281.489C-90.7408 302.409 -72.324 315.394 -48.2289 319.384C-21.3847 323.867 5.48944 308.177 14.6378 283.76C23.3204 260.658 14.112 234.165 -6.39288 223.047C-19.537 215.949 -34.9345 218.071 -44.0678 228.232C-51.3083 236.331 -51.0379 247.658 -43.3618 256.176C-36.3315 264.035 -27.0029 264.693 -17.7194 257.849C-15.0905 255.907 -12.7321 253.62 -10.2084 251.409C-2.35199 270.969 -11.0647 287.974 -30.9537 292.756C-56.4909 298.912 -81.5624 282.953 -84.1011 258.85C-86.5948 235.121 -74.6073 215.635 -52.1195 206.849C-51.7177 206.625 -51.3445 206.355 -51.0079 206.042C-69.5449 186.362 -83.1698 165.084 -78.0473 135.512C-59.6605 146.689 -42.3102 157.149 -25.2754 167.908C-16.9232 173.227 -8.96164 179.205 -1.24039 185.331C11.1049 194.819 21.7674 206.294 30.3056 219.281C42.3231 237.855 47.7911 258.133 44.3811 280.054C39.5891 310.717 16.1099 334.297 -16.1571 341.933C-20.2881 342.904 -24.4642 343.681 -28.445 344.503C-30.2326 370.25 -17.2988 392.56 5.50446 403.079C24.1166 411.686 43.8704 412.478 63.9096 410.88C67.4097 410.596 70.9098 410.192 74.4249 409.819C74.7271 410.684 74.9533 411.574 75.1009 412.478C75.7618 433.234 85.9167 448.805 102.921 459.713C113.437 466.452 124.823 471.862 136.12 477.241C153.62 485.579 172.608 491.093 185.692 503.839C196.463 497.773 206.347 491.885 216.592 486.565C224.238 482.65 232.56 480.05 240.236 476.105C251.563 470.367 263.055 464.734 273.6 457.755C279.858 453.743 285.226 448.499 289.372 442.347C293.518 436.195 296.356 429.265 297.71 421.982C298.491 418.037 298.837 414.018 299.423 409.774C303.313 410.147 306.648 410.536 309.938 410.805C328.625 412.299 347.057 411.597 364.753 404.648C389.734 394.846 406.033 368.591 402.097 344.189C399.844 343.801 397.471 343.412 395.097 342.979C359.045 336.449 333.087 310.642 329.076 276.767C326.898 258.223 331.209 240.814 340.357 224.586C349.817 207.938 362.906 193.611 378.663 182.656C396.84 169.85 415.887 158.255 434.605 146.211C440.043 142.699 445.646 139.427 452.165 135.437C457.002 165.098 443.468 186.527 424.645 206.251C443.723 212.034 453.878 225.229 457.303 244.057C460.307 260.494 456.251 274.525 442.822 285.015C429.392 295.505 413.859 296.671 398.207 290.305C394.614 288.815 391.375 286.594 388.696 283.785C386.017 280.976 383.958 277.641 382.651 273.994C381.344 270.347 380.818 266.469 381.107 262.608C381.395 258.746 382.492 254.988 384.326 251.573C387.526 254.113 390.546 256.923 393.94 259.134C399.844 262.945 406.123 263.811 412.523 260.135C415.479 258.479 417.99 256.136 419.839 253.305C421.688 250.475 422.821 247.241 423.141 243.881C423.461 240.52 422.959 237.133 421.678 234.007C420.396 230.881 418.374 228.111 415.782 225.931C405.943 217.847 394.827 216.442 383.125 221.642C373.373 226.148 365.603 234.03 361.268 243.818C347.748 271.851 362.515 305.592 393.595 316.291C422.677 326.288 446.607 315.648 467.007 295.371C483.531 278.934 488.038 259.418 479.911 237.273C473.902 221.015 465.385 206.804 449.116 197.958C451.985 196.464 454.313 195.253 456.627 193.938C458.938 192.701 461.153 191.293 463.252 189.724C511.081 151.351 538.136 103.504 531.18 40.5643C528.912 20.0327 524 0.218407 512.103 -17.3246C495.458 -41.7712 468.629 -43.2206 447.839 -33.9859C428.13 -25.2144 422.587 2.50468 436.693 18.8074C444.534 27.8777 455.996 29.7008 465.91 23.0362C475.825 16.3717 482.314 7.30135 480.406 -6.32658C492.424 -1.58968 500.386 5.98637 502.429 18.2396C505.658 37.6653 496.855 50.6358 480.016 57.5992C487.917 64.458 496.405 70.6892 503.495 78.2353C511.502 86.7677 513.334 97.1829 508.497 108.375C506.725 112.455 504.126 114.352 499.604 114.591C483.711 115.174 470.823 108.764 459.932 97.8853C456.146 94.0898 453.037 89.6517 448.906 84.6608C448.66 92.5078 446.86 100.229 443.61 107.383C440.359 114.537 435.722 120.983 429.963 126.352C418.276 137.559 404.546 144.089 387.361 143.805C403.735 123.737 407.595 116.773 409.052 91.9529C409.864 77.9962 407.926 63.6959 405.703 49.784C402.773 31.4042 397.561 13.3682 398.372 -5.50475C399.123 -22.7489 406.844 -36.1676 420.905 -46.015C430.594 -52.7841 441.605 -56.3555 453.097 -58.6417C454.414 -59.0154 455.708 -59.4644 456.972 -59.9866C422.197 -69.834 392.754 -61.4809 370.386 -34.0756C367.712 -30.7881 365.744 -30.4893 362.049 -32.3123C343.848 -41.619 324.325 -48.1043 304.155 -51.5439C274.501 -56.2658 248.318 -49.2875 226.777 -27.8145C220.204 -21.4311 215.317 -13.5314 212.551 -4.81736L219.131 -8.74735C247.838 -25.9018 278.647 -31.7296 311.53 -25.0202C358.098 -15.5165 386.64 19.958 385.904 67.2224C385.483 94.045 380.165 120.105 368.418 144.119C356.881 167.699 343.151 190.217 330.248 213.125C324.765 222.853 318.531 232.222 317.104 243.863C311.38 244.415 307.159 242.368 305.086 237.392C303.525 233.419 302.44 229.276 301.856 225.049C300.895 219.072 300.459 212.991 299.723 206.221C271.888 218.475 245.344 230.608 224.614 252.096C216.496 260.204 210.698 270.32 207.819 281.399C201.42 306.892 215.33 331.189 239.876 337.047C257.061 341.156 275.132 333.326 281.862 318.861C284.05 314.382 284.791 309.34 283.984 304.425C283.177 299.511 280.862 294.965 277.356 291.411C270.551 284.687 261.162 283.312 251.323 287.765C241.754 292.098 235.91 298.853 237.803 311.061C229.225 306.578 224.058 300.69 222.916 291.904C221.249 279.128 226.476 268.772 235.73 260.524C251.999 246.119 270.881 244.789 290.515 251.902C316.593 261.331 329.031 293.593 316.413 318.308C314.415 322.223 311.125 325.511 308.616 328.858C315.256 329.919 322.001 330.576 328.52 332.13C344.308 335.896 358.864 342.112 369.079 355.441C376.831 365.558 378.243 376.675 373.496 388.884C358.263 381.92 342.13 380.814 326.192 378.663C307.249 376.107 288.216 373.956 269.454 370.444C245.419 365.961 222.376 358.116 203.223 341.305C202.126 362.868 220.453 383.908 248.003 392.948C239.23 409.385 224.118 414.959 206.918 416.647C214.669 446.175 207.354 469.665 186.834 481.619C178.639 476.041 172.163 468.307 168.131 459.28C165.133 452.785 163.515 445.745 163.378 438.599C163.241 431.454 164.588 424.357 167.335 417.753C159.103 415.153 151.097 413.27 143.646 410.103C135.911 406.664 129.746 400.477 126.356 392.754C152.854 385.521 170.325 365.737 171.181 342.217ZM264.797 153.832C261.267 162.513 255.168 167.788 247.958 171.957C236.992 178.278 225.665 179.743 213.828 173.227C217.944 198.197 201.991 212.348 187.119 227.859C171.992 212.169 156.069 197.883 160.44 173.586C139.019 181.237 113.797 171.345 110.282 153.712C136.796 149.573 150.466 131.163 161.357 107.807C135.819 125.843 115.84 126.068 88.0197 121.57C79.3221 120.18 70.5643 118.581 61.8215 118.372C52.4028 118.193 42.9691 119.597 32.1082 120.419C32.1082 117.909 31.4923 114.562 32.2284 111.543C34.2714 103.175 40.5656 98.4083 48.422 95.1059C37.3659 83.1516 34.8122 69.0753 36.4045 54.0876C38.6127 32.9284 51.7268 17.9855 70.2188 15.4452C83.3537 13.5445 96.7363 16.4373 107.894 23.5891C109.054 24.3868 110.167 25.25 111.229 26.1742C104.829 28.6548 98.1595 30.2835 92.4962 33.6457C71.8862 45.7644 70.2789 69.2547 88.7858 84.3171C98.4936 92.485 110.817 96.9316 123.531 96.8542C139.8 96.7346 152.073 89.1736 160.5 75.2617C166.509 65.3097 166.359 44.9276 160.711 37.9044C159.609 39.6497 158.416 41.3356 157.135 42.9551C152.223 48.5288 147.566 54.4163 142.114 59.3923C139.65 61.5889 135.384 61.7981 131.328 63.0982C132.83 42.1781 131.328 34.1687 125.785 23.873C108.585 -7.70135 54.9866 -13.4842 32.3636 22.4983C12.7 53.7738 8.32858 87.5298 23.5307 121.869C38.5526 155.774 64.6757 179.055 98.4149 194.237C107.522 198.173 116.377 202.665 124.928 207.686C147.852 221.613 169.258 237.572 186.969 257.55C211.74 231.699 239.546 210.136 272.398 195.776C291.762 187.304 309.097 176.35 323.758 161.288C356.626 127.592 368.043 88.6207 352.495 43.239C341.649 11.5899 319.853 -3.92078 289.583 -1.58968C265.699 0.188522 246.741 16.9096 242.94 40.4597C241.814 47.438 242.775 54.76 242.775 62.2315C234.633 63.3074 229.706 58.6302 225.275 53.5945C220.843 48.5587 217.148 43.2689 212.972 37.8745C204.049 57.4198 210.523 79.4158 227.994 90.4138C245.059 101.113 266.119 98.737 284.311 84.0481C304.771 67.5212 302.337 44.0908 278.888 32.1813C275.102 30.2536 270.791 29.3571 266.72 28.0421C265.443 27.6386 264.121 27.3846 262.829 27.0708L262.424 25.3225C268.868 22.558 275.087 19.0315 281.787 17.1637C311.56 8.81058 335.01 25.0087 337.804 55.5072C339.171 70.3156 336.302 83.8987 325.786 95.345C340.297 102.144 346.066 113.022 339.696 121.764C326.748 116.908 313.333 117.729 299.873 119.627C291.521 120.808 283.214 122.257 274.847 123.288C254.297 125.829 234.799 123.288 217.508 110.826C216.412 110.034 215.225 109.332 214.083 108.629C223.908 131.327 237.683 149.677 264.797 153.832Z"/>
</mask>
<path d="M185.797 538.925C182.402 534.173 179.608 528.824 175.522 524.759C165.608 514.912 152.899 509.637 139.755 505.513C126.01 501.194 112.115 497.339 98.3398 493.065C93.7091 491.571 89.1698 489.81 84.7449 487.791C63.0733 478.197 51.822 461.601 50.9907 438.001C50.9907 436.88 50.8555 435.774 50.7504 434.654C50.6206 434.318 50.4544 433.997 50.2547 433.697C21.3075 442.559 -2.86273 431.874 -24.4342 413.659C-46.0056 395.443 -58.8343 372.596 -56.6561 342.994C-60.6369 342.381 -64.5576 342.097 -68.3131 341.141C-93.2795 334.805 -110.585 318.562 -123.699 297.478C-136.392 277.066 -141.875 255.055 -136.002 231.146C-132.997 218.968 -128.235 211.197 -114.836 195.971C-115.091 195.567 -115.272 194.969 -115.677 194.73C-148.56 174.288 -165.82 143.312 -175.179 107.12C-181.901 80.4237 -182.813 52.6069 -177.853 25.5317C-175.915 14.3694 -171.153 3.46101 -166.316 -6.93925C-153.217 -35.1365 -134.875 -59.0452 -108.422 -76.6778C-72.9549 -100.318 -17.2537 -91.5311 10.8072 -68.3546C13.6313 -66.0235 15.6593 -65.7097 19.1894 -67.0247C46.2288 -77.156 74.1245 -83.1929 103.312 -80.9067C124.748 -79.2181 144.412 -72.5536 160.485 -57.7601C169.889 -49.1231 178.707 -39.8286 187.405 -31.2066C192.151 -36.8251 197.199 -43.7437 203.193 -49.7208C226.236 -72.6881 255.108 -80.1745 286.759 -80.0998C310.509 -80.0998 333.132 -74.6755 355.124 -66.2925C358.714 -64.9178 360.952 -65.112 364.017 -67.6374C386.414 -86.0321 412.583 -93.4587 441.064 -90.2908C492.8 -84.5378 538.556 -41.7712 549.222 8.91518C555.666 39.3688 557.409 69.8972 550.889 100.455C541.636 143.79 525.833 167.699 488.894 195.716C489.351 196.41 489.853 197.074 490.396 197.704C513.244 220.776 517.796 247.942 507.326 277.708C498.403 303.111 482.179 323.09 457.753 335.403C449.597 339.527 440.223 341.29 430.894 344.369C432.922 372.656 420.169 395.503 398.522 413.763C376.876 432.024 353.096 442.558 323.713 433.593C323.217 438.21 322.872 442.558 322.211 446.952C319.792 463.837 311.125 477.002 295.817 484.309C282.553 490.585 268.237 494.769 254.327 499.64C241.979 504.004 229.24 507.411 217.253 512.536C204.725 517.916 193.939 525.985 188.035 539L185.797 538.925ZM171.181 342.217C170.445 342.366 170.009 342.321 169.769 342.516C150.391 358.878 127.047 365.886 102.801 371.042C69.002 378.244 33.7005 376.84 0.65239 388.346C-5.19113 374.374 -1.25539 359.775 11.4381 348.627C21.5478 339.751 33.5954 334.76 46.6044 331.981C53.0638 330.606 59.6584 329.874 66.8989 328.738C59.5532 323.837 56.2334 317.083 54.596 309.417C52.3382 299.145 53.0517 288.446 56.654 278.56C64.4804 257.102 88.921 244.341 113.542 248.674C133.341 252.141 148.092 265.59 151.322 283.043C153.5 294.893 147.672 305.935 137.081 310.239C136.601 306.668 136.721 302.857 135.504 299.51C132.59 291.471 120.903 284.851 111.229 285.165C106.605 285.408 102.173 287.078 98.5494 289.944C94.9254 292.81 92.2896 296.728 91.0091 301.154C87.6291 311.913 92.331 323.777 103.027 331.294C126.13 347.611 160.11 333.655 166.614 304.994C171.376 283.88 163.445 266.561 149.129 251.543C136.6 238.379 121.353 228.86 105.265 220.671C95.4856 215.68 85.466 211.182 74.8455 206.132C74.1245 210.241 73.6888 213.349 73.0429 216.397C71.9643 222.621 70.5451 228.782 68.7917 234.852C68.1732 237.072 66.9297 239.07 65.2078 240.611C63.4859 242.152 61.3573 243.171 59.0725 243.549C53.8449 232.984 49.6087 223.286 44.4262 214.141C35.7736 198.884 26.0845 184.255 17.5821 168.864C-0.143753 136.916 -11.0497 102.951 -11.7257 66.0867C-12.4317 27.0409 7.98308 -4.98174 44.5914 -19.2821C83.0174 -34.225 119.971 -29.1444 155.183 -8.6577C157.015 -7.59676 158.818 -6.44614 160.636 -5.34037C160.212 -8.76948 159.038 -12.0645 157.195 -14.9935C139.079 -42.9068 112.626 -54.4727 80.0281 -52.5151C56.2935 -51.0208 34.2864 -42.862 13.0905 -32.656C8.82431 -30.6088 6.55598 -30.6985 3.38635 -34.5687C-10.4338 -51.4841 -27.8592 -62.243 -50.2267 -63.7821C-61.3807 -64.4335 -72.5636 -63.1492 -83.2749 -59.9866C-75.5537 -57.8049 -69.1844 -56.3704 -63.0855 -54.2186C-35.3251 -44.4161 -21.8204 -23.8546 -24.1938 5.19438C-24.8999 13.9061 -26.4621 22.5581 -27.754 31.21C-30.2326 47.7817 -34.1834 64.2637 -34.9645 80.8952C-36.0311 103.892 -31.9601 126.008 -13.5133 142.729C-13.3631 142.863 -13.5133 143.371 -13.6485 144.029C-30.0674 144.029 -43.8575 137.693 -55.5295 126.546C-67.0597 115.778 -73.9281 100.972 -74.6824 85.2585C-79.6697 90.8621 -83.6955 96.2714 -88.6678 100.739C-99.0028 110.138 -111.201 115.533 -125.501 114.442C-127.95 114.263 -131.225 112.948 -132.487 111.095C-134.359 108.4 -135.659 105.354 -136.307 102.142C-136.955 98.9304 -136.938 95.621 -136.257 92.4162C-133.748 80.3572 -125.261 72.8111 -116.008 65.8925C-112.402 63.1878 -108.497 60.8268 -104.546 58.1521C-123.308 48.7081 -131.15 36.1113 -128.581 20.1971C-126.493 7.1818 -117.134 -3.53228 -106.138 -5.34037C-108.031 7.12202 -101.902 15.8188 -92.3932 22.588C-81.983 29.9847 -70.0406 28.1467 -61.9138 18.2993C-48.3941 1.96669 -54.0874 -24.7064 -73.1652 -33.8365C-84.1027 -39.046 -96.4848 -40.4409 -108.316 -37.7964C-126.778 -33.9561 -137.489 -20.9707 -144.775 -4.92197C-155.665 18.9867 -159.526 44.3896 -157.859 70.4202C-155.455 107.897 -138.33 139.158 -114.16 167.101C-103.352 179.937 -90.0131 190.434 -74.9678 197.943C-94.6465 209.434 -103.87 227.246 -108.437 247.987C-111.158 259.401 -109.293 271.422 -103.239 281.489C-90.7408 302.409 -72.324 315.394 -48.2289 319.384C-21.3847 323.867 5.48944 308.177 14.6378 283.76C23.3204 260.658 14.112 234.165 -6.39288 223.047C-19.537 215.949 -34.9345 218.071 -44.0678 228.232C-51.3083 236.331 -51.0379 247.658 -43.3618 256.176C-36.3315 264.035 -27.0029 264.693 -17.7194 257.849C-15.0905 255.907 -12.7321 253.62 -10.2084 251.409C-2.35199 270.969 -11.0647 287.974 -30.9537 292.756C-56.4909 298.912 -81.5624 282.953 -84.1011 258.85C-86.5948 235.121 -74.6073 215.635 -52.1195 206.849C-51.7177 206.625 -51.3445 206.355 -51.0079 206.042C-69.5449 186.362 -83.1698 165.084 -78.0473 135.512C-59.6605 146.689 -42.3102 157.149 -25.2754 167.908C-16.9232 173.227 -8.96164 179.205 -1.24039 185.331C11.1049 194.819 21.7674 206.294 30.3056 219.281C42.3231 237.855 47.7911 258.133 44.3811 280.054C39.5891 310.717 16.1099 334.297 -16.1571 341.933C-20.2881 342.904 -24.4642 343.681 -28.445 344.503C-30.2326 370.25 -17.2988 392.56 5.50446 403.079C24.1166 411.686 43.8704 412.478 63.9096 410.88C67.4097 410.596 70.9098 410.192 74.4249 409.819C74.7271 410.684 74.9533 411.574 75.1009 412.478C75.7618 433.234 85.9167 448.805 102.921 459.713C113.437 466.452 124.823 471.862 136.12 477.241C153.62 485.579 172.608 491.093 185.692 503.839C196.463 497.773 206.347 491.885 216.592 486.565C224.238 482.65 232.56 480.05 240.236 476.105C251.563 470.367 263.055 464.734 273.6 457.755C279.858 453.743 285.226 448.499 289.372 442.347C293.518 436.195 296.356 429.265 297.71 421.982C298.491 418.037 298.837 414.018 299.423 409.774C303.313 410.147 306.648 410.536 309.938 410.805C328.625 412.299 347.057 411.597 364.753 404.648C389.734 394.846 406.033 368.591 402.097 344.189C399.844 343.801 397.471 343.412 395.097 342.979C359.045 336.449 333.087 310.642 329.076 276.767C326.898 258.223 331.209 240.814 340.357 224.586C349.817 207.938 362.906 193.611 378.663 182.656C396.84 169.85 415.887 158.255 434.605 146.211C440.043 142.699 445.646 139.427 452.165 135.437C457.002 165.098 443.468 186.527 424.645 206.251C443.723 212.034 453.878 225.229 457.303 244.057C460.307 260.494 456.251 274.525 442.822 285.015C429.392 295.505 413.859 296.671 398.207 290.305C394.614 288.815 391.375 286.594 388.696 283.785C386.017 280.976 383.958 277.641 382.651 273.994C381.344 270.347 380.818 266.469 381.107 262.608C381.395 258.746 382.492 254.988 384.326 251.573C387.526 254.113 390.546 256.923 393.94 259.134C399.844 262.945 406.123 263.811 412.523 260.135C415.479 258.479 417.99 256.136 419.839 253.305C421.688 250.475 422.821 247.241 423.141 243.881C423.461 240.52 422.959 237.133 421.678 234.007C420.396 230.881 418.374 228.111 415.782 225.931C405.943 217.847 394.827 216.442 383.125 221.642C373.373 226.148 365.603 234.03 361.268 243.818C347.748 271.851 362.515 305.592 393.595 316.291C422.677 326.288 446.607 315.648 467.007 295.371C483.531 278.934 488.038 259.418 479.911 237.273C473.902 221.015 465.385 206.804 449.116 197.958C451.985 196.464 454.313 195.253 456.627 193.938C458.938 192.701 461.153 191.293 463.252 189.724C511.081 151.351 538.136 103.504 531.18 40.5643C528.912 20.0327 524 0.218407 512.103 -17.3246C495.458 -41.7712 468.629 -43.2206 447.839 -33.9859C428.13 -25.2144 422.587 2.50468 436.693 18.8074C444.534 27.8777 455.996 29.7008 465.91 23.0362C475.825 16.3717 482.314 7.30135 480.406 -6.32658C492.424 -1.58968 500.386 5.98637 502.429 18.2396C505.658 37.6653 496.855 50.6358 480.016 57.5992C487.917 64.458 496.405 70.6892 503.495 78.2353C511.502 86.7677 513.334 97.1829 508.497 108.375C506.725 112.455 504.126 114.352 499.604 114.591C483.711 115.174 470.823 108.764 459.932 97.8853C456.146 94.0898 453.037 89.6517 448.906 84.6608C448.66 92.5078 446.86 100.229 443.61 107.383C440.359 114.537 435.722 120.983 429.963 126.352C418.276 137.559 404.546 144.089 387.361 143.805C403.735 123.737 407.595 116.773 409.052 91.9529C409.864 77.9962 407.926 63.6959 405.703 49.784C402.773 31.4042 397.561 13.3682 398.372 -5.50475C399.123 -22.7489 406.844 -36.1676 420.905 -46.015C430.594 -52.7841 441.605 -56.3555 453.097 -58.6417C454.414 -59.0154 455.708 -59.4644 456.972 -59.9866C422.197 -69.834 392.754 -61.4809 370.386 -34.0756C367.712 -30.7881 365.744 -30.4893 362.049 -32.3123C343.848 -41.619 324.325 -48.1043 304.155 -51.5439C274.501 -56.2658 248.318 -49.2875 226.777 -27.8145C220.204 -21.4311 215.317 -13.5314 212.551 -4.81736L219.131 -8.74735C247.838 -25.9018 278.647 -31.7296 311.53 -25.0202C358.098 -15.5165 386.64 19.958 385.904 67.2224C385.483 94.045 380.165 120.105 368.418 144.119C356.881 167.699 343.151 190.217 330.248 213.125C324.765 222.853 318.531 232.222 317.104 243.863C311.38 244.415 307.159 242.368 305.086 237.392C303.525 233.419 302.44 229.276 301.856 225.049C300.895 219.072 300.459 212.991 299.723 206.221C271.888 218.475 245.344 230.608 224.614 252.096C216.496 260.204 210.698 270.32 207.819 281.399C201.42 306.892 215.33 331.189 239.876 337.047C257.061 341.156 275.132 333.326 281.862 318.861C284.05 314.382 284.791 309.34 283.984 304.425C283.177 299.511 280.862 294.965 277.356 291.411C270.551 284.687 261.162 283.312 251.323 287.765C241.754 292.098 235.91 298.853 237.803 311.061C229.225 306.578 224.058 300.69 222.916 291.904C221.249 279.128 226.476 268.772 235.73 260.524C251.999 246.119 270.881 244.789 290.515 251.902C316.593 261.331 329.031 293.593 316.413 318.308C314.415 322.223 311.125 325.511 308.616 328.858C315.256 329.919 322.001 330.576 328.52 332.13C344.308 335.896 358.864 342.112 369.079 355.441C376.831 365.558 378.243 376.675 373.496 388.884C358.263 381.92 342.13 380.814 326.192 378.663C307.249 376.107 288.216 373.956 269.454 370.444C245.419 365.961 222.376 358.116 203.223 341.305C202.126 362.868 220.453 383.908 248.003 392.948C239.23 409.385 224.118 414.959 206.918 416.647C214.669 446.175 207.354 469.665 186.834 481.619C178.639 476.041 172.163 468.307 168.131 459.28C165.133 452.785 163.515 445.745 163.378 438.599C163.241 431.454 164.588 424.357 167.335 417.753C159.103 415.153 151.097 413.27 143.646 410.103C135.911 406.664 129.746 400.477 126.356 392.754C152.854 385.521 170.325 365.737 171.181 342.217ZM264.797 153.832C261.267 162.513 255.168 167.788 247.958 171.957C236.992 178.278 225.665 179.743 213.828 173.227C217.944 198.197 201.991 212.348 187.119 227.859C171.992 212.169 156.069 197.883 160.44 173.586C139.019 181.237 113.797 171.345 110.282 153.712C136.796 149.573 150.466 131.163 161.357 107.807C135.819 125.843 115.84 126.068 88.0197 121.57C79.3221 120.18 70.5643 118.581 61.8215 118.372C52.4028 118.193 42.9691 119.597 32.1082 120.419C32.1082 117.909 31.4923 114.562 32.2284 111.543C34.2714 103.175 40.5656 98.4083 48.422 95.1059C37.3659 83.1516 34.8122 69.0753 36.4045 54.0876C38.6127 32.9284 51.7268 17.9855 70.2188 15.4452C83.3537 13.5445 96.7363 16.4373 107.894 23.5891C109.054 24.3868 110.167 25.25 111.229 26.1742C104.829 28.6548 98.1595 30.2835 92.4962 33.6457C71.8862 45.7644 70.2789 69.2547 88.7858 84.3171C98.4936 92.485 110.817 96.9316 123.531 96.8542C139.8 96.7346 152.073 89.1736 160.5 75.2617C166.509 65.3097 166.359 44.9276 160.711 37.9044C159.609 39.6497 158.416 41.3356 157.135 42.9551C152.223 48.5288 147.566 54.4163 142.114 59.3923C139.65 61.5889 135.384 61.7981 131.328 63.0982C132.83 42.1781 131.328 34.1687 125.785 23.873C108.585 -7.70135 54.9866 -13.4842 32.3636 22.4983C12.7 53.7738 8.32858 87.5298 23.5307 121.869C38.5526 155.774 64.6757 179.055 98.4149 194.237C107.522 198.173 116.377 202.665 124.928 207.686C147.852 221.613 169.258 237.572 186.969 257.55C211.74 231.699 239.546 210.136 272.398 195.776C291.762 187.304 309.097 176.35 323.758 161.288C356.626 127.592 368.043 88.6207 352.495 43.239C341.649 11.5899 319.853 -3.92078 289.583 -1.58968C265.699 0.188522 246.741 16.9096 242.94 40.4597C241.814 47.438 242.775 54.76 242.775 62.2315C234.633 63.3074 229.706 58.6302 225.275 53.5945C220.843 48.5587 217.148 43.2689 212.972 37.8745C204.049 57.4198 210.523 79.4158 227.994 90.4138C245.059 101.113 266.119 98.737 284.311 84.0481C304.771 67.5212 302.337 44.0908 278.888 32.1813C275.102 30.2536 270.791 29.3571 266.72 28.0421C265.443 27.6386 264.121 27.3846 262.829 27.0708L262.424 25.3225C268.868 22.558 275.087 19.0315 281.787 17.1637C311.56 8.81058 335.01 25.0087 337.804 55.5072C339.171 70.3156 336.302 83.8987 325.786 95.345C340.297 102.144 346.066 113.022 339.696 121.764C326.748 116.908 313.333 117.729 299.873 119.627C291.521 120.808 283.214 122.257 274.847 123.288C254.297 125.829 234.799 123.288 217.508 110.826C216.412 110.034 215.225 109.332 214.083 108.629C223.908 131.327 237.683 149.677 264.797 153.832Z" stroke="#F4ECD9" stroke-width="8" mask="url(#path-1-inside-1_73_752)"/>
</svg>
